<mxfile host="Electron" modified="2024-06-18T17:23:58.730Z" agent="Mozilla/5.0 (Windows NT 10.0; Win64; x64) AppleWebKit/537.36 (KHTML, like Gecko) draw.io/22.0.2 Chrome/114.0.5735.289 Electron/25.8.4 Safari/537.36" etag="uS9plLu2cCiYmnYSH6w9" version="22.0.2" type="device">
  <diagram name="Page-1" id="qc8t8SAgBhTor4p0fDtW">
    <mxGraphModel dx="1418" dy="820" grid="1" gridSize="10" guides="1" tooltips="1" connect="1" arrows="1" fold="1" page="1" pageScale="1" pageWidth="827" pageHeight="1169" math="0" shadow="0">
      <root>
        <mxCell id="yhXGz4Dvr0VDfxbSY4Sc-0" />
        <mxCell id="yhXGz4Dvr0VDfxbSY4Sc-1" parent="yhXGz4Dvr0VDfxbSY4Sc-0" />
        <mxCell id="QP6gKjixdVG4MOO0RyRV-0" value="" style="shape=image;verticalLabelPosition=bottom;labelBackgroundColor=default;verticalAlign=top;aspect=fixed;imageAspect=0;image=data:image/png,iVBORw0KGgoAAAANSUhEUgAABEsAAAJxCAYAAAC66TyKAAAAAXNSR0IArs4c6QAAAARnQU1BAACxjwv8YQUAAAAJcEhZcwAAFiUAABYlAUlSJPAAANcVSURBVHhe7N0LfBTlvfj/LxBuAbxwESISEkWjGLxUW6Q2QUAUDq03kNbTlpRjUwFtPXpiY/Hk9PTkmCPHVGt/CmjqX2NvNhKVtpRYRARORay2XmIURROCGCt45yK38N/v7Dyb2cnsNbubTfJ5+xp35pnZmWeemSz7fPd5nul12qlnHxGL/WILLAUn91AUAtDZus1fIR8nAICO6GW/osfgkiN5uLtMEQSXhH+p16BBg/nqDgAAAAAAYOt12qlnBYIl1ky70El6x1K6TaSn25xIKlBYAAAAQNdDS4aodZOiSv/TcOTQN+vMbyBY0vY/1b4ymrbV07TNWKy6zYkAScFfCNBDHOkmf+29usm3XPRI3L1AOugmf4lpehrts2Wn+F7Mul6nmpYl1v+PSEZGH+nXP0P69u1jzffunaZnBwAAAAAAEKfDh1vl0CGdDsvePft9Kf5oiUZB/MESO1AycGA/yRzUT/bu3SsHDx60psOHD+tKAAAAAACAbqNPnz7St29faxLJkH17D/he/Q1GeptAyZCjBkrffr3kgw8+kM8++0w+//xzAiUAAAAAAKBb0piHxj40BtK3by85+phMe40GS+wWJb16tcqHH34ohw4dslcBAAAAAAB0fxoPOXLksGRm9vMtHZHeOi6Jdr359NNP/VsAAAAAAAD0MBoXGZjZ1z9+qw7mqmOU0KIEAAAAAAD0VBoX0fiIxkl661NvdCBXAAAAAACAnkzjI1bLEv0fwRIAAAAAANDT+YMlvaV37969eOoNAAAAAADo8TQ+0qdPb30aDgAAAAAAAIxeBQUFR1paWuxFAAAAAADQ0/3+97+358K75JJL7LnUuuaaa+SPf/yj7Nixw04Jduyxx8r8+fPljjvusFOil5WVRbAEAAAAAAAE02BJpEBINNsky+jRo+WHP/yh/O///m+7gIkGSsrKyuQXv/iFNDQ02KnR02AJ3XAAAAAAAECXogESDZRowEQDJ0ZHAyUGwRIAAAAAANDluAMmiQqUKLrhAAAAAACQYuk+Jki6d8NxMl1y9Ek2iQiUMGYJAAAAAABopysFS0yLkj59+niOYRIrxiwBAAAAAABdlrPrjdcYJvEiWAIAAAAAALoc9xgloQZ9jQfBEgAAAAAA0KWEGsw1UQETxiwBAAAAAABB0n0A2htvvFHq6upCDuaqgZLi4mL5z//8TzslegzwCgAAAAAA4MAArwAAAAAAAC4ESwAAAAAAABwIlgAAAAAAADgQLAEAAAAAAHAgWAIAAAAAAOBAsAQAAAAAAMCBYAkAAAAAAIADwRIAAAAAAAAHgiUAAAAAAAAOBEsAAAAAAAAcCJYAAAAAAAA4ECwBAAAAAABwIFgCAAAAAADgQLAEAAAAAADAgWAJAAAAAACAA8ESAAAAAAAAB4IlAAAAAAAADgRLAAAAAAAAHDovWDLiEvm35b+RNRufl7+/0iANDTrVy0svPCvrVj4gP75khL0hkJ4uv3eDvOK7Z19YWSYn2mkAAAAAgK6vE4Ilg+SiW1fKpqduk6sLz5LRwwZI7wN7Ze9enQ5K74FHyciTJ8rXr7nO3j59nDj3v+WBP/1Fnr7/cjsFSD3uQwAAAABIrhQHSwbJNx74s9xx+clydK/PpHnjA7Jgcr6cec65cu65Op0tE744U378u7/Lu7sP2e9JH2fOnCoTc46VfnRegs9j1xTKhPH5cs6l5fK2nZYK3IcAAAAAkFwprW7l/6RGfjjxWOn9+XZZfeNUmXHN7bJhp73S2LNNHvnJN+XCr5fbCQAAAAAAAKmTumDJoBvlv76WKwPkY3n+f6+Qf/vzHnsFAAAAAABA+uhVUFBwpKWlxV5MnhP/9wn5/VfHyOE3quXLly2RmEIllz8gz9w6UY5pfETGz/2j/PuDP5MrTztW+sou2fjDQrnmT/Z2g74o/3rHT2T2l8bIsP59fAmHZf8H2+W52h/LjT/7a7tjjihcIP/+/a/LxBOHyuCBfa3I0eH9H8j252rlxzf+TP5qv+HyB56RWyce419w+XjzLfLl+Y/ZSz4x5iGkEYWy4N+/L1+feKIMHTxQ+vozJx9sf05qf3yj/MxkLqKfyKqGKyX3481yy5d/KIdvWyo3TDlFRgzxnW/rQfls5xvy5P98R24JEbwaccltsvSGKXLKiCFWHloPfiY731gndy66WX5vtwoKXNvXfyFnXnGHPzHgRnn0pe/KqX3fl6f/5QJZ9KydbDlRfrrmjzJztO86Xuu7juvsZE+XywPP3CoTj2mUR8bPkrtd+fK6bn7O982VP/77g/KzK0+TY/uK7Nr4Qylsu3nki/Mr5IfzJsq44UeJden02n26S7Zufkj+d/EDrv36/GSVNFyZ2/4esPj29693yE9mf0nGDOsv1p0QMo82370zv+KHMm/iOBl+lP89rQf3yUc7NstD1y2SXWUx3IcA0Iluuukmew4A0Nluv/12ew5AtLKyslIXLCn7fb1cNU6k8ZGJMuvH0Vb0bYFgyWPyi/0z5bunDrBXfCybb/myWHXE/FJ59P5vy6lDeluV0veaP5S9mcMlJ+tYX2X6sK9i/B++irGzMmkHEaRVDn62U95971M50O8oOf6EkTLIV0v9fOtvZc4l/rEoziv7lfzo3CHSf3iOZPtq2Qc/apamXfutvXz2/P/It8rtCEDMeQjtJ6saxFcP9wcn3n1PPj3QT446/gQZ6c+c/HbOJVIe1UAZJljyvDy25SS59IuD5ZOWJtm1N1OG52TJsVakYbv88aqL5Yf19lssg+QbS/8gP7xglAywgirviq+IAnlo3fem/O7KS/15OPGnsuaPM2X03pflznO/IVX+HfgVPyzP33CGZPpmd6z+qkz/N0emB/nyttmXt081kDNfwpdMW9BjzSOH5SuzT5SMPfZ1yxwq2aOGWQGO1o82y39fNF8eDtxibe977Bf7ZeZ3T5XA3RMIMORL6aP3y7dPHSK+Kyf7P3hPmj/cK+LY7+Fdm+TWmVc79usTMlji2J8GuN5rlg8d5X1410b5j8Jrgs/Xce9YQTH7PUOzR8mw/p9Z9/m9+VHehwDQyTRYUlFRYS8BADrL4sWLCZYAcdBgibZXSIHL5cTheqhP5L3NMQZKnIYUyGU5H8vm+4rki+PHy/jxdqBEpsjSu7WiKfLR87fJ1LMLZPqll8ql08+3KrGNn/eR4edfL0unWHuxHZLd726W+4omypkTp8hM3X7mFPni1HukfrfIgHHTpOQ8/5bPln9LLvWtv/cNf973vHGvtaxTWwU1njyEdmj3u9Z5TjxzokyZqceaKVO+OFXu8WdOppnMReuoL8ilZ34sK+d/Wc6frvubLud/eb6s2dEq0meMTP33YntDv0E3/tIfKPm8UR7zvWfilJmBPNz2/EciA0+WyytvlEG68duPyJvv+14zs+XLrge0FF1womS2HpbDvsNknVrk3964ZoKc4Lst9jY/EyFQ4pQlBV8dKdseni9fNtdteoGcfdU98vJHrdL72Imy6A6vQh4iBZflyMeb75OiL+q9Mz4Q4Jiy9G4rsCGfvS6/KTpPzi6Y7r++ut+pt8nG9z6XPsMnyQ9/aZ9vBIH9ffS83Db1bClwlPdjjbqv8+X6oBvhcrn/Xv+989nrv5Gi89reU3D2VLl5zVb5eH+09yEAAAAAoKNSFCwxPpZ3/mTPxmP4YNn1q6/JfHd3lhu/L+cf11tadzwh18x7SJxjxu756y1S+dddvjM9TsZf6QwwlMvXL5zfvjvLzntkzdt7fTPHydiZ/qSoxJWH0Mq/fmH78/Tt9Z41b4uVu5gy59N7r9Qvmyu3OM93z1/l+pp6a3+ZY86Tf/Kn+pwnt1+iLTB2y8vu9/jy8NDC38vWgyIDTvqKXGOlPSsPNWi05BjJne48v8vlgtzBvjJ5Tp7X0z9hgr29X/GXsqWv7+hb1wa1RYlggHz+8m1yxX+7yqb+HvnGfS/5cuy7Tc7+rhT5Ux2Gy+Bdv5KvzXd3gblRvn/+cb4/hF3yl5uvkP9udz88JNd890nZ3uo78ikXy49PtNNDsvfXukOeuGaePBR8I8gtlX/1Ham3HDf+Sl8p+534vwtk4rH+e+fqK/7blb+d8vvr58kNHfm7AQAAAADEJMXBkn4yOGJlM4y9b8jqO1yVWR9/pbtVtj3zHxLUk8S27vl3QwYYdNySsv9ZLr9ZuVLWbHxenn/hJbn+DO00EpuO5CEkHbek7H9k+W9Wyso1G+X551+Ql673d2mJ2cF35Lmq9mUnv3nLH9gZfKycaiX4nHilnHyc7/XjV+V3Xu/Z84i8pbGRvqNkgt2S5Nk1jfKx7/W4k6+UwCW+/BLJO0akpf5WeWjLLt/22fKlQAOWy+XL2b4zOdjsy5edFJWP5LVHQrRDqf6DvP6p73XwcXJGu/tsr7yx+o72Y8YUf0my+/ped/xVloQaM+Xtn8iz21p9fy2j5dRv2mmh2Ptr3faM/If3jSDv+m8E8d8Jg6To9NG+P8SDsvVJ73sHAAAAAJBaKQqWvCQfWrXUY2X0NCshPjvfkt/Ys04nDNHwQW/JvfKv0tDQ0H6yx8wIMugbsvTJF2Td8h/IVZcWylkn5cjQgYfks/eb5J2PDtobRS+uPISk44U8KS+sWy4/uOpSKTzrJMkZOlAOffa+NL3zka9aHYc9n0ijPRtkzyFp1de+/eVoK8HnzKH+7ibHTJRbvc6lQQdltbZs89jvZYtGS7JOlSK7r8qUGSfJMbJDXr7nbVlX95Z87CuBbNNP57zpknuMyMHGzXKvPyVK4Von7be6+2j5DT3TSnDYKW953zzWddn7wevW+DTe9siL72sUprcMPCZCtM/eX+/cK+WvnmV3gwTH4i6S7GP1z/B9eesRj8AUAAAAACDlUhQseVtefl87SGTKiRe07yARtdZD7VsGBByUj5rflDffDDM1mnDBiVL22x/KBcf3lz1b18jPF0yW8flnyjnnnmeND2LGhIhdLHkI7cSy38oPLzhe+u/ZKmt+vkAmj8+XM885V87TcUPufSNMGSTY7n94n0NgelveDowN/Jg807zXd0edIBOsvjbnyZV5w0Xef1Me0SjEY8+Irj4md7rV/eTEK0+W46RV3nnp7iSczxFp9Y976tAqh8Ic6NCBz+y58A59/g97LjwdfNW7zMzU6ApeHZIodw0AAAAASLKUdcOp/vOb1ngSg/O/Ibfm+9MS5ZP92taij3zwF/9glyGn6x70v0G+KV88cYCvRvuG/O6S62X5BufAEiK5R0czjGew2PMQ2je/eKIMkIPyxu8ukeuXb/B3kzFyj45qkNEOadknB/T14Ntyr9c5BKZviXNc0aq1W2Wv9JVs7Wtjd+V5v+Eh8W9SJc81+8rouJPlyhNFLsv1rWzdIa9WxxoqCdOVa9BZctxRvtfWD6TpT/6kiD7Zb7XUOSrri23dh9oZJGdZOz4o+z6IkF97f30++ItHeTmn68R/J7TIPquwR8hJ/2wlAAAAAAA6WerGLKkukz9s/Vyk71i59N4H5BsJrPE/vvU9afWdythzSqMLJFx+olgP5/HqmjKoWL50gg5iEZuY8xCSeXLQHvmkfeak+EsnSOy5i9Gzm2WHRraOPVkujfLpPZaq50TjIZnZX5bia8+Q0bJLtjzSFk2595V3fGWUJacWXStf0oE9WupleVSPP3bKkjOu9Y625f/Xl2Wsr+had7wuv7bTIrp3szRqdGP0F6U01Lme+EM5Vx/bc7BRNkfqM/T4VnlPhzcZe46URnUjPCtrGrX/UqacNquj9w4A9CBXVvlb6j25WCbYSQDQlVx22WXW5BYqHUBqpS5YIm9L+eI/yNZ9/se7/vuGJ+WBmwplhL02YMRp8s0f/1qe/F2ZnRDZ2z95Qt7QOMwpX5dH77qk3T4HffFf5YEnfyeBPT72tuzSsS2OyZPLnVGbQV+UW2sWSn6mNfBFO481f2S9HnX8pHatEGLOQ0iPydv+zEne5d9wVJ4HyRdvrZGF+ZninbtEqpZfPP++7zjD5fz/flj+9YvuKvwIueS2lfKne13PCZZ7ZbNGHo7JlavOzhL5+C2pcwyauud/n5dtrb1l5HmXyJhM7aHzSJhxQkLpLaOn/FzunRdcwiPmPST3XqwDpe6W+hU/iX6/e5ZI9fMf+c/1tkfl393nOmKe3PuLr0lu31b56PlqWRKpIczbP5En/DeCfP3Ru+SS9jeC/OsDT4rz9n6sfLVYcUTfvfOHe+e57h1fWd/1a/m5o6jD3YcA0DNcKVUVF8jTi0+Wky+skFfsVADoSkaOHCnXXHNNUGBE5zVN1wHoXCkMlvjU/1guKVomm9/7XHoPPF4mzl8u6+tfkheef16e1+mFl6R+fa3c8vWz5fjBGfaborDnDvn2/26Wj1oHyJjpt8m6lzbLutUrZeXK1bLu2b/Ls9Xfk4mjBtobqzvkN3/VCvIxcu6/PyOb162WlavXyeZnHpDLs1rkrw06mKeH6letR8j2HvNP8thf1ljv+bMJGMSch9Du+M1fffsROebcf5dnNq+T1bqPzc/IA5dnSctfGyRE7hJq3aLrpLbRd52OPUO+V/2s/H2j73xX+p/K88JL6+S2S06WozPcA4Pskbtf0tYjx8moUb3l4y2/l6Dn1uypltdb9DHFY+RYV6uT6G2T51/qL+ff/FQgT2s2/l2euvlcObb3Ydm16Q652usJPmE8dvU1Urt1n8iQU+WfHee6et1meWndzVIwqp/s21or11wd4ik8QfbIHd/+X9nsu4ADxkyX29a95L+/rP359v1stXxv4igJuhPeLper/neT7Do8QEYV3Oy7d16QjWv03lkjf9Gynp4rQ+xNLeHuQwDoMbZJ4+v2LAB0Qffee688/vjjgYCJCZRomq4D0LlSGyxR9ffI/KkXy4Kfr5EXd3wgew/2loGZmZKpU79W+fyDHfLimp/Lgu/82H5DdPY8PF8umn+fbGz6QPbLIBk59mQ5+eQxMrTvftn16hq5ff5VUm5vqxXah+dfI8s2NskHvuMPGTlWTj7hGDmw4y9yz7xZ8vtQde23fyj/tmyzvLPniPQ9drT1nta9gRFOY8xDaLqfa5ZtlKYPDkrvISNl7MknyDEHdshf7pkns0JmLtHq5cezLpabf/+q/OPTQ5IxzHe+J/vOZ9RgOfJps2z+3c1y2dV/srdts8dXkd9hNX3ZLY1Pu4MLb8sjb+ozh31crU6i1yqN8y+Txb9/W3YPHmXlafSxveXAB02y8b5/kZlXPxzHgLG+c71khiz+3WZfmR+Q3nptffsdO7yf7Nv5pm+/86Xwkh9H/1jfPQ/L/Ivmy316f+0XGaT3l29/Y4b2lf27XpU1t8+Xq1w3wp6Hr5aZ/3K7rHn1H7K7tZ8MG633zijJ3LdTXl1TJUv/bG+oItyHAJDurqx6U6qutBe0lcibT8pi05dmwmJ50lppp1/pW7YHx37S2kjTK+QCGSvzHzVpANA1OQMmsQZKvvnNb8rq1auDJk0DkBi9CgoKjrS0UNFCurtcHnjmVpl4TKM8Mn6WxBZKS45Bt66Wv14+Vj7efIt8eX40rU4AoGe46aabpKKiwl7yoOONXPRnObn4EWv+yWtyRZ66QS6seEUmLH5S7hSdP9UfFNn2gFyhXW00iPLoVHnqigul4hUNmFwjjda8vU8A6KI0wPGtb33Lmv/Vr34lv/511KPvBVqlKK9Ay+LFi+X222+3lwBEKysrqxNalgDdxEXHH2297vnwJesVABCl1xtlW+7J1sCsV16UK0/d+5TI1K/5lifI16aKPPUHEwHZJg/cYI9J8kqF3Pv0WMk91VoBAN2CBjo0UKKBDp103gQ/omFapsTSIgWI7FQ56782SdF99vRf35djrfSvyuT7auSsMdZCCjiPl+pjd0Y3HKBbOFG+csIxvtfd8v7LsQ9TCwA92it/kKdkqnxtwpVyUe5T8odHdDlXTp3wNV+qb9mztcgEOTnXngWAbkBblGjLEG1NooEOnXRe02LpTmPeCyTEmO/Lpfc9IEf/aZJUf8+eqkTGnmev70EIlgBxGPSN/5RJo30zH78qK6r9aQCAaL0if9DGJHdeI7lP/cG3pMu5ctEPtDuOLhtjZerX7DFJNJAy9mn58yP+RQDo6gYPHmy1CHF2u9F5TdN1QOqdKmcV/7N8/P9NkvXOZ3Fs/3/yYjzP5ujiCJYAUfrJyr9bT6nRp+Q88+/nyjGtH8nmn18X/MQfAEBUXtFoydi2Lje6nHtBrqMLjtomjbl3WoO7vvnofGlcXCzESgB0F6FahNBSBJ1mzHQZO+ovsi3awIjVCsV016mUHDs5Z5GjC8+ir9qp/m40kxfVBG1reL+ncxEsAaK0a88hOWb0yTJ2ZKa0fvSm/H7xZTL/4VQ9nQgAuplXKuTCkx0DtLqXbY0/v9D/NDbfpOPB+j0ixR7bAgCADnpvm3xiz4b3VZlcViDbyu2uOv+fyJmX+wcWa1pquvDcKk1nzXOMMzJGjmn5D196iTTZKUbo93QegiXoIh6T+V8eL+M78Uk4/++fvygTxmseJsjZBZfKzb/faa8BAAAAgG5g1FjxP8YigjG5coyMkTPL7NYg/3K+HJM1zr/uvEq7lcgtrhYk22Xb86/b8y4h39N5CJYAAAAAANDTbV8j2947P4bBXP8i680gsDot/aO/a86/iJ0+X156z940nHjekwIESwAAQBqiqw0AAKn1urz4p79Izr9sksnOgMmY78tZ7gDK9kb5WM4PdL0JGD1WjjFdeawxUKzU8OJ5TwoQLAEAAAAAACLPlkh1+W/kmH+xu9foVCweg77+Udb7tpOZD7RtpwOzPvsLeUn+WS6x3jdWPo6mlUg870mBXgUFBUdaWlrsRQAAgI656aabpKKiwl4CAHSWxYsXy+23324vAYhWVlYWLUsAAAAAAACcaFkCAAASSluWAADSAy1LgNhpyxKCJQAAAAAAADa64QAAAAAAALgQLAEAAAAAAHAgWAIAAAAAAOBAsAQAAAAAAMCBYAkAAAAAAIADwRIAAAAAAAAHgiUAAAAAAAAOBEsAAAAAAAAcCJYAAAAAAAA4ECwBAAAAAABwIFgCAAAAAADgQLAEAAAAAADAgWAJAAAAAACAA8ESAAAAAAAAB4IlAAAAAAAADgRLAAAAAAAAHAiWAAAAAAAAOBAsAQAAAAAAcCBYAgAAAAAA4NCroKDgSEtLi70IAADQcQcPHrTngM7Xt29fey45uN+RTpJ1v3OfI50k+3M9KyuLliUAAAAAAABOBEsAAAAAAAAcCJYAAAAAAAA4ECwBAAAAAABwIFgCAAAAAADgQLAEAAB0ggmy+Mk35c037enJxb4UhwmLpWqxplwpVVVX+tOALuzKKt993u5e9t3fbz4p1q0eNB+teN7jc2WV998d0EHJuc9j4Pu348lk7h89CsESAACQWtaX2Ucl996T5eST7ekGka85vl9P+NpUkTdf8c2cLNL4up0KdFG+e/6a3Kfl6dxrOqES566c+pYrLpCnF/v+7i6sEN9fGZAYnXqf216pkAtPvlAq4rqxwwVykhzkQVoiWNKtZcm1Nc9Jw8tPyp2T7SRElH/XWsoMAJJmgiy+c740+ipqxY/YScr3BbdCl+1fvB+dP1YuqHhT3nx0vlww/1F+AUeXZgX/nvq5/PwpkalfS4c7eRsxSCRc+t3nQMd0brDkJ6ukoaHBY3pGHrjc3ibt5ctdaxvkhd9dYy/3IPl3ydqGFyS6U+8J5dSD7wUAiNaEr8nUsU/Ln52BEqdHiuXkk6+QB55+QK44+WRZ/PTTslhbnvALOLqsCWLVIf/wirzyB6sWGWPgz/5F+0ptkfWmFUx8MsTP21YXCHsbf1cIfW+FXCBjZf6jmlYVtBzYj9Xaq+29bb0o/MeuqnrSl17lW2qfF912wmJd719uy1twV7t2PTPQzSTzPnffhz4R7tm229C5nf1ei/v+1Pc5/1acN6x73Q3We4M3qbKD+uHOw8czP/ytpKu0aFnS+Mh4GT++bbpls8jEWxtk1U/sDdJZ1mTJGmLPp50WuWful2T8GRfKDevtpATKmpwlUZ96WpdTgvSEcwSARNjWKOF/1D5VcuVNecX3BfJkibQterpvfvObsnr16qBJ09KGBgjlKfHVIcVXi/TNTZXYf3T3VdKuEblBA4dXPCAy/07P7gCPFNvd2k5eLE9foF0hHpFinZdt8sAVvvTi4qDlC62+Cr7K3aP+1l7We337z61wVDZ9x85tvMG3rlj8MU5HXhY/bbUAu1N0vX957Pwf+CuAV/5A5jcutvPjakmGuKXt/Z70+9x5H0a6Zw3dzpcrvfet+1PkGmsjDU48KlOfusJxf7r/Vpw3rHvdnVJxr+/ev6gtqnHlRRfI0/eaoH6o8wiRH/5W2kmX+zwtu+E8Nv922fyxSO65XSFaAgAAYjI2V061Z4OZX9cq5IILKnyvj8r8C+bLo/zShjB+/etfy+OPP24viTWvaenC3zXhD3Yl6hXRH93n/yDWG9pXSbvBroi9UiH3Pu2rOHr9EZmBW61fwaM04WTJ9VUDA6292u1/m9VaoI0jL4/82apABtZby7lyslYMX2+Ubb6/41CtYBCfdL3fk3+fO+6ziPeszdrObg2ifxcVF/j++fFtZLdwvDe+gU389F6/4CJ/YND3/4tyH5CfB4IcIc4jVH74W2knXe7zNB2z5DFp/sj3cmy2OHvjZF1bI885u+u88Dvx6vDQbjt3V5Gsa6XmucjrtTuFe1/OLhbW2BZrr5X8wSIDJ1zv3ybcWBeO/fq7sLTtt925WOtflifvvNw/7ki7bfxdPgLv99qHGbPEo5ysvDve+/KTd4pXtt3b+c/Pf+y11+bLYBkoE66PYh8RyilSfqz1+p7Lg69dYDtXebq7wgTeP9kuk8C2WsZeuXZxXy/fFOu9EOkclXubUPc4AHRZ+ovjtgvE8YOcwytSceHJcsUD2/yDTy72VcMe8P/yxy9tCOfee++1vkzrpPPp40r5wfyxMlbH3bGCGP7xeCRQyYrHBDk515510ub9FeLvtqZd2bbZ6Z3FV0m80JeXG+RO67wJeCZO+t3vKbzPY2Z35TRTwv4xeUR+/kCu1TJkwuJrJDcQKHJzn4dHfvhb8ZQO93maBkt+IufqTfVRszzmT7AqkWuvPUka7zLddebKmo8nyPVBFVJ/RTh4u/Ey7Z6XRWMvFq30+iq1JzXeFVg/d83Hvgp/+0pz3zFFUnv5DrkpsJ96OeyrCJtKcv3102T8tHukfrfIvlfs/UXR5UX3+1z1KKmx92vt47DvXDwqxpkTfyT/cuR+/3bnfF2s28SquNfIlCNPyEKzD8/y8OIvo5opR+SJhW3Hf/2oi2WZRzAmaDvfNHf1dt+6erl+mr88dss+ecUu6zMuvEG8Tj18OUWbH5+M4+Xin1wuO27yb6fH//z4i+WOVatk7W9Ol5ft9/uv07UeQZBMmXj7E3L5jpv8x/FNc9fslOMv/n8RAia+srjrK7Ir6J4KPkbHz9FjG72m71krAaAbecXffLnC9YXQV9FbbC+f6vsOoINPTvB9w2zUJ+IAUdAv0+lRcXS48iK5YJt//J1A5cgKZIQKGIYytm3AzFDj/vj+cMaaLm7WNlZqZK+8KY3iyI/vb/GaC8KMKxSjVyoutAKguVZzEyRKWt3vqbzPVbT3rL2dv+uNgx20b5ceI//YLD+QH9hjtbQJcR6h8mPjb6W9zr7P0zBYcrk88MyV4vt6JI/M+rE/Kf8uuWv6CHn3iRvl64Gy8lXYr18jLRnHyYTL/BXWrGvvkqL8Pr7K+zmO7URa7pkvC6xlrfROlxHvPiE3Ojaov/56WdOSIcdNuCzol/6MwXtlc3lbAKDlnv+STS0iA8dN7dCv/brfv9xoBz5Uyz0y91985zJwgnwvqEVEhhzTv1Huc56MfQ5Z+16Re4KCE77y+Javsv758TKtzLuFhwqU0T2OoI7v+NdX18vugeNkqn34/Lvukukj3pUnvh8c/KkvnR8xGBSLaPPjd0jeXVse2K7lnuulun63DMwdI0eC0vU6tb+eknGM9G+8Ry50nED99d+Se+o/l+OnlYUJMmlwyH1PhTiGh6jOMesKmZwzWPa99oijfH3HneW4TwCgu9BBXK0+5nZTZJ3uFPmD/UX3kWL/Yx/1iyMtStCV6TgG29r94qxdFLYFjXcQ2TZpzPX/6qxPiGpcbMYPcXjk5/KA+LutvXmn75t0oGXJI/Lnp+2m/54/WT8ixc6/R2tMBY/9xyrQJUhbGTR2rMsD0lpK73NLtPesfzvfzR+4F/1/A9qKcbE0OtL9fxrh/lY81mkXm8YL5ILGe12PKg51HiHyw99K2kqLYEnulY5uBw23ynFr9Ff1WWKHSiS/OF+yDr0vrzzeVsm11FdJfaDCmiVXTM6Rwfu2ylOhapf5xZKfdUjef+VxVwuIeqmqb5GM4yaIHXexHHr/FQk+5Afyxge7RfoOk1Mj1ZDDaL9fH+tcdNenBlW+9219KriybJ/DuxuWtq9Etzwq65t2S8axx4foCx66jFoeXS9NuwfKOKvmni/F+Vne+UyoaPNjHJQPXndmqEXWt3ymBeq6N/zXqX057JOt7W6OFnl0fZPszjhWjvcutBBCHcMtynNsWS96Kh0NxAFAl2E3Ow78CsnTbtAN6YCr/kFUg2kg0N8dQAeO9AcHg+fba/y57z3230tbENH5Hn83Nv/fU7EUX9i2r8DAr+2OaQv6e3Suc28bw7L1ZCuzzwQEX5C2Unuf20Les6pRAo0S3f/WBHaq+2xLN8nBfyvBQq172qP5i/d5+Hjlh7+VtJUWwZK2p+E84ru1RXKnP+AYqyRLJusjRrQLxjJnUEWnGpmeZTbz/zJ/6KN3Q46a7396S4Ycf/Ey134apCawozYHP3jdFVSxK+cd1H6/bYIr34fko3eDz8Z/Du6ggWHnL2QwZ5icMswaVEOud52/GW/DYgVkwuczMaLMj3HoI3EVR2zCvr+vDIsUAQsat2StXNsug16iPcd6ue1RbWlib8dYJQAAAEBsrC5BKXqKmnb/CRrYFd1NmnXD+bHMumWzfHzMRLnV/dzgfa/IXVZApf3kHCsjcgW/bYyNdlOSHrEbi3DBnkQ59K5zrJPg6ZxAX5P2gZpkiS4/yRYqAOVjBgSucY5bMk3u0QFKohTNObbcM1e+5Fueu0b7evmDJu6BagEAAAC46ADH2pWlIrftSTRJYz+5Tbv/JP1Y6EzpN2bJY/Plduu5wdPlAat5SaTWEja7G4O7G4tTy/oW+SyaFgRJ5pnHrMmiDWgiBXvCn4PdCufgB+Jd74+y68gHb8gHuzPk2Nj6pcQh2q4sCRKiq82wU4bJ4DCtTvJvvkLyB7wrTywMHrckOrGfozVYrB2MGTjhe8FPagIAAD1M+G4LQPfQwfs80L0lFX8rpsub17H4e+1O0nCAV42XrJFGOUYm3uTvjlNfVS8tGcdL4aJwtUZ73JHjCyXkZvYYJ8cXLkp4F4dwQRo399goKuuKyZIzOIrWHOHOwQwS6h7nJMAen2PgaXJluKe/2GOfDDztyghP1lGxBZ+CyynK/CSMewwU5R+fJXSAKUQAyi5rL4k5R/t9aRDcAwAAAICeJi2DJVZ3nEcaRY6ZKN/V3jj1t8mj1q/s7sfB5stdT7Q9Ktf/VJuBMuHa4Mfn5t+1yv51vm1ciGufDH5iTP5dT0R4fGwIEQdV9aDjr9zhGJMi/y751bX5MuDdtVIesR+Q/RSgdufgK4tfXSv5fV5xPT0nmHmKy/EX3xHcYkG7mqw3eWqRe66vtp6sE5RPyZJrf/1YoGz9A5RG2QIlRDlFl5/ECb6H9HG9/59Mz9onr9wX6qkzdsumoGCHXdbuWElHzrHd+ZqBYV+TRzq7bxgAAAAA9DC9CgoKjrS0tNiLKfaTVdJwZa41wKt5SnAbfYTwrTLxmI9l8y1flvmPaUxhbbuBWPe9cpdrXAutAK8MHnzzkOsRuDpQZ81035YOOibKOXaFWSuuK6+Vkxrd+7bzMOVI8P7s7a1Duo/l5Nhv0Xtzg86l3XlYeZwiR574ftCjbgOcx7TpuBjfD3qcsF0WJzW2nZvFo4z0sbztjpUvd611DKKrnOXkk3Vtjay8Nl/8p+4+vkvIcoqcH89y9/FOb3/ege1+/JiM/pGj3DyuV/t9uvOnefuxPDb6R+3LNt5z9Lie7rIGAAAAACRfVlZWJwdLehpHsCQ1A5e2Dxr0VKGCLQAAAAAAOGmwJE274SAx/I+tTcUTdgAAAAAA6C4IlnRjWdf+h0zK2ievPRKmawwAAAAAAAhCsKS70a4+zzVIQ0ODrL32JGm8K57H3QIAAAAA0HMxZgkAAAAAAICNMUsAAAAAAABcCJYAAAAAAAA4ECwBAAAAAABwIFgCAAAAAADgQLAEAAAAAADAgWAJAAAAAACAA8ESAAAAAAAAB4IlAAAAAAAADgRLAAAAAAAAHAiWAAAAAAAAOBAsAQAAAAAAcCBYAgAAAAAA4NCroKDgSEtLi70IAADQcZmZmfYcAABAm71799pz6SsrK4uWJQAAAAAAAE4ESwAAAAAAABwIlgAAAAAAADgQLAEAAAAAAHAgWAIAAAAAAOBAsAQAAAAAAMCBRwcDAICE626PDn594n/Yc8lx6ub/sucAAOjeusqjgwmWAACAhOvMYMnBgweltbVVDh8+bKeEF01eXy78mT2XHGds+Fd7DgCA7q2rBEvohgMAALqN/fv3W8GSaAMlqit8aQMAAKlFsAQAAHQLGiDRadDgDPnSv50rV6/4TmAyzLwzDQAAwI1gCQAASAvawqMjk7YqUadfc5ZMmJQvO17bIc+ufFZe2VRvpbsDJbEETFYWny7zJ460l/wO3PEVOWfMYHtJrPW6ndJ1zsm5nXvd7Zfm2mvau+uuu6wpUZ5//nkZP368NZn5jkrkvgAASBcESwAAQLeigZLdOz+TurI18uovX5fnfvq8lX7/nAc9X6Px+Mu75LIzhttLEgh+fOMLI6xXNX5UprzxfluXnkl3vij9bvw/uWv9DvnVt/PsVD+zTqebVjbaqcE0+JCdnW1NiQ5ENDQ0yLnnnmu9xsMZHOnovgAASEcESwAAQFp58MEH45pOPfVUew8in+z61J5r05GWJS+/u0dOGTHAXvIHSTQIcspxbYPDfvX0ofLw33baS200GHLS8IFBrUuicfHFF8uGDRusSecBAEDqECwBAADdztHDj7Ln2nSkZckL23dbrybgYQIjM0871lpWGhAx2yVCYWGhPPHEE9ak807asuPSSy+1XnW64YYb7DXh1znpOmeLlcceeyzwHn2/0i5AJs10B9J59dBDDwWlmX3pq3mPTmZfSpc1P2ZdqLwBANDZCJYAAIBu4eyzz7ZedaySwSOGyIzy6XL6t0+1Xo14AiXGGzs/lzOOH2Qv+QMoq1/7yAqg6HglOu9FxyR5a9e+oEDKphvOCoxZ4h4LRTm7uJjuLc7AhvrOd75jdX+ZN2+efPOb3wxaH26dFw2UaAsWfY9OK1eutNKvv/76QNr5559v7Ufnle5b17tpEKW8vNzaTrcpKysLOn5OTo61TrfRvAEAkI4IlgAAgG6hoKBAhg0bZo1VogGT0aeNlvMuPU9GjG0ba8RLZmZbV5pwzLglGtzQwInSMUq0S457vBJlAiLXTx4tp1W8YKf6OccseWDzP+zUNqYLjqHz11xzjb3kd8stt1ivGkz5y1/+IieffLK1rMKtc9NAxpgxY+TOO++0U9o4W6hEwwRFTLDF6/j33nuv9Wq2iRTIAQCgMxAsAQAA3YIGPX7wgx/IwIEDrYCJth7R6ZfzfmtvETweSqzMuCUaGNHAidKuODpuidd4Jc6ASKy0xYVOJlCh89qyIxQdBDaUcOvC0SCGtgoxLUu2b99urwEAoPsjWAIAALqNsWPHyk9/+lO57LLLrAFfNVCgr1dddZXcfvvt9lbxMd1otKWIBk6Upum4JYkcr0Rbc2hgwgQpnMEK5/gfZtBX0zLEtNRQ4da5aesP3bd7/BBtDWICJGY/kZguQyaf+j4N8oQ7PgAA6YhgCQAASEvF3/tuXNP1//oDWfWnP8pbb2+VlvfetV5X1D4ii2/5kbW+I/746oftxh/RsUpCjVcSj6lTpwZ1wTE0TdcZOvaHtjoxY4Q4hVvn5fLLLw9qyaLBDhPg0OVbb701qGWJdq1xDvDqZMYpMcfXZQAAuppeBQUFR1paWuzF9NTa2ip9+2bIsSMHSmvGEfns3f3Sx/eakdlbdn94yN4KANAV9OvXT4YMGSIZGRnSu3dyYvb678ahQ4dk9+7dsn//fjsVqRTtOCBOe/f6x/wwXWQ6GtgIpeq+X1ivOgiqiiavLxf+zJ5LjjM2/Ks9Fx0NRGgQwrTkcAq3DgCAzmb+vU9nWVlZ6dOy5PDhwyEn/TKdddYwGf/ds2TsrFMk64KRcvb3z5UJV39BBg7MsPcAAEh3WinVATg1YJKsQInSfesxhg4dah3zyJEj9hoAAAAgsrQJlmh/1m9961ue0+mnny5DTjlWtv2lSf6+7EVp/fywHD5wSHr31ezzBRgAugodeDPVBg0aJL169bKXAAAAgMjSphtOcXFxyFHeN27cKOv/sVaOOWmofPj6Ttn14j+kz8AMGTB8oLQ8/4G9FQAg3Y0cOTKpLUpCSffupt1Rd+uGAwAAEoNuOAk0ceJEGf6P4dLyTLMc+vSA9D04WOZM/6ac2P9Ue4vwZi9vkOWz7QXLbFneUCel+faimr1cGqyNdF2D1c/XPzm3c69rkLqgnQTT4/r3mQiOPOeXSp07//FK5L4AIILOCJQAAAAAsUqrb61bXn9dnqirazete+opGXn8aOm3a7B8vrXV6pYzbtw463GA0ahds0EKpzuCFvnjJEeyZcqstghB/rgcaW7cYi81S/Xc8dbj7uZWixRVlkrblm3rdJqxpN5Od8kvleKcDbIhpzjxgYj6JTJj/AwJdejwXIGiDu0LAJJkZoWsXbs2MD20MM9eIZK3sEKsRd82FTP9aQAAAEAipVWw5KWXXpIVj67wnP60epW8s+Md+eiTj2TT5k3y3nvv2e+KwpZGac4ZFwh45M+aIk3V1SK55st3vviSZN2q9hGD+iVVsiF7ijjiKlHRY8i6u+XudRIUlAEARKCBkhKRymnTZJo9zVtmgtl5MnWSSJNvMS9HZPvbdjIAdFGvT/yPpE4AgPj0jPbQ9atknZiAhz8w0rhqqzQVThd/e5M8yc1ukq0Ja13RFnypX2VFSxwtU+yWHbO1+4u7K0+4dU6u1iG+vZfWtXUNMj1/rG5AdlpbF6NyKZRsKapxpjn2ZXXLaXtfWy8ie7vS5YF14bogAUB88mThVSfIikWLZbWdEmC1Nlkqc0ZPlJK1a2XpnIkyZ+laWpcA6NIO9B+a1AkAEJ8e0nm8XrY2ZdsNSfIkV9bJqvpaWbMhR8ZpfX/2dCncsEZqdbVLfmmxFDbr9naCCTS0CyY45M+SKdYxfPNBgRrDt49ikRLtyuPv5+MIfIRb50UDJTUyZd3cQNegBfaJ1C4w3YXKZEOhdgeqlQU6b7oSmQ0DZsvymiJpKrPf5zt+TrkzKOPLW+4a/7qyDZJddJ3vHQCQQHlTZZJskqdMQxKn1Ytl2qIVsnnFIpk2rVI2b660Wp0sbhdVAQAAADqmx4y0Fxi3RAMjTVtF4xhbGv1dZILHK1FtAZGaoiYpm7HE2t4veMySdvEGH38XnFX2e+pFG5cUXecMK/j2UWLvs36JVG0wgRwVbp0HDcxkb5Aqr0FHdNBaK6ijrUmiYI3lskHWmHPyytvdJhKzxrelHWwCgKTLk4UPrZW1S+fIxDlLZe3aEpk4scT3WiE0LAEAAECipU2wZPfu3fL555/LkSNHgqaEscctmT0uRzbY0QCri0zuLI/xSpwBkQWeLU5Cmy3XFWVLdlFNoPVJjW9ZAl1+3PLFl6UQwq2LQLvTlIuUWecwV6qb7XQASGdbmuSd0ZNkarsg8RZZNm+aLFqxWVYsmibTKjfL5kodz8Sjuw66PH2kr04HDxyKakro94Uo3HXXXdaUbPo95Pnnn7deE+3SSy+19v3YY4/ZKekrmeUQLT2+1zV35kvnnZOWsb7Hna7TDTfcYL1HrSw+XeZPHGkv+R244ytyzpjB9pJY63U7peuck3M797rbL82117SX6PtYz0vLIpHXK5H7AoBYpUWwpFevXvLwww/LuqefFjnSy5qOtIq0Hj7im1oT8yXI6g5TJOVFIoFGJPU6bkmRFCVyvBJtudJcLXPtfyz8kwYrCqXtgTyOJ/HYLUMCrTnCrvOg5+Xbd7G7r05ermQ3N/qqFz7WfqzU8LQ8xJFPfaJPYYTjA0BCrZbqFSJzblkobfGSmbLQevxNnkwds93qojOzQGQjURLYDh08nLKAif67rk/j0ynZFTj9weXcc8+1XuMRrpJZVlYm5eXlcvnll9sp6cWZ946WQ6LoNdcASDjz5s2z8qrTypUr5frrrw8sO9ffeeed1rJ6/OVdctkZw+0lCQQ/vvGFEdarGj8qU954f6+9JDLpzhel343/J3et3yG/+nZwdNms0+mmlY12arBk3seJvG/T5doD6JnSIlgyZMgQmTt3rpxxxhly++23y9133y0/+tGPZOrUqXLJJZfK4EFD5Kv/NCtoGjkyOAIfmXaHaRYJGn9Exy3xvYQYryQes6cX+g5huuAY/mO3Pb64WZpyK60P/gZrjBBn65Vw67zUy5IZZdLkaMlijaNSe7dUS5HUaFplrjQFWpboOdvdjNoNuFIrC6xxSvz7aaiZIuvmxtqyBgA6ZsuyebJo0yRZGnh0cIE0WU/D2SLLFi+zgsCrF9OipLvZv3+/PSdy9dVXW5N68MEHPSfl3C5VAZOLL75YNmzYYE0635W9+eab9hyiofedtnhKtJff3SOnjBhgL/mDJBoEOeW4TDtF5KunD5WH/7bTXmqjwZCThg8Mal0Sje50HwNAsqRFsGTcuHEyYsQI2bZtm/Tv318GDBgg/fr1kxdeeEFyc3OtwEhj07agSVuirF+/3t5DdOqXzJDxQeOPiH8Q1KCBR3QQ1BniNQRI+HV+ur8ZHhtYx3Ycp/Fu3/J4f8sT97gn3uucx3bnQ5dNKxbzHg2i2GkzFsiCGW3bBwZ+tTZ07at+icwI7Mt9jHDLABBZtJVZDZiYxwbT1aZnOHz4sPWqwY+CggJrPhq6rQmY9M3oJ1X3/SLi1BGFhYXyxBNPWJPOh6K/jpuuLjo5u13osumeofTfXLOdTs7WC7qs65V7OyftTmPSzXHVQw891K6rhXOdyVekPDjz6+Y+tnK/J1TezTY6mXya9c68a5opB53XfJv3OcvWeRyzjXmfk9dxI9HgUnNzc9DxEuGF7butVxPwMIGRmacday0rDYiY7RIh3H2sZRLu3g21zknXOcvd6x6J59o7r69O7vvUXHMzDwAdkRbBki1btsh7770nY8aMke3bt1tBk5aWFjn77LPlrbfeksbGRnnxxRfbTe+++660trbaewEApLtDhw7Zc6ljKuFIfyZQsnHjRrn//vvt1NB0G93WBEz27dtnr0kOU2EzLTmVV0Xc0FYI2oVAu15885vfDNq2qakp0DVDK4baJcZsq11kvPar25luHLq9qQxqRVRbCGi6Ttr9w+xbt9euIE7OdaY7SKQ8OPPr5HVsw32OXnl3dlM5//zzrWOa93jl3cjJyQnsS8vWcJ5HOF7HjYa+z30tnfT4prIeizd2fi5nHD/IXvIHUFa/9pEVQNHxSnTei45J8taufUGBlE03nBUYs8Q9FooyeQ93H4e7d8Ot8xLqHonn2ke6T0PdFwAQj7QIluzZs0f+8Ic/yOuvvy733HOP3HHHHfLLX/5SnnnmGVm9enVQ01y33r3T4hQAAFHYu7etz32q6ADi6Dm0IhftFCvTdcHQ+WuuucZeau+WW26xXrVC+pe//EVOPvlka1npL/rKVPRMBdJrW2W2M5VxrSRqxVDT9ccm5xgYsYomDya/TpGO7T5Hd96Vs5VCLO69917r1eRZj6GT/uhm0sKVSbzHVVoRD3XdtQJvAgCxMOOWaHBDAydKxyjRLjnu8UqUCYhcP3m0nFbxgp3q5xyz5IHN/7BT20RzH4e7d8Otcwt3j8R6Dcx9FO4+9bovACBeaRNp0IDIwYMH5dNPP5VPPvkk8HScAwcOWAPAdh/huq/QtQVA96bBEv2MT0VrDz2G/pvSGQEaxMfdUiSSWFuidJT+Uq2TqeDpvP4iHg0dSDMRTEVcp1CtLtKVO+9akdXAiUnTQEcqdPS4WhGPZrDXWJhxSzQwooETpV1xdNwSr/FKnAGRWMV6H4e7d+O9rzvr2gNALGiWAQBIKQ1evP/++1Z3y2ROegxtuYiuoU+fPtarCZhEyxko0X1kZmbGPEVDK8ZaoTOVO2clL1Sl2QycqRVD/XXd/NrtpL+OK7MP3VYrru5tzXbucRg0XfPQkfEZos2DW7THDpV3bRFgKsmmjDpCj6P7MOcRKl/RHlcDCbrei7au0Mp+ophuNNpSRAMnStN03JJEjlcS7X0c7t6N5r42Qt0j8Vz7eO9TAIgXwRIAANDpdIB3Z8DEBEC8us/opJzb6Xt1H8kyderUoK4LhqbpOi/a1UQr3GachVDM2AtmW132ounOFgFmAEx9/K8z3VQmtYuC7i+aAUyjzYNbqGO7eeXdVHJ1+dZbbw1UnlUseXfScjbnEUq440ZLK+6//vWv7aU2mmdzjrEGsP746oftxh/RsUpCjVcSj2jv43D3brT3teF1j8R77eO9TwEgHr0KCgqO6C9wAAAAiRJtiw037ZYbazetZAdK4qGVOa3ImV/D46X70V/+ETtteaAV6nQvv5cLf2bPJccZG/7VnotOuHs3Ufc1gJ6tK3SRzsrKomUJAABIHxr0cHeTiTSlW6AkUfQX+HhaPcBPBy2l/AAA8SJYAgAAkEa0RYT+gq/dDcyTRxAdfUytlp1OOp6FdgEBACAedMMBAAAJpy0+AAAA3OiGAwAAAAAA0AURLAEAAAAAAHAgWAIAAAAAAOBAsAQAAAAAAMCBYAkAAAAAAIADwRIAAAAAAAAHgiUAAAAAAAAOBEsAAAAAAAAcehUUFBxpaWmxFwEAADouMzPTnuteDh8+LIcOHZLW1lY5cuSInZpYvXr1sqaMjAxrikUq8pdOKKv2OlImAJAKe/futefSV1ZWFsESAACQeN0xWHLgwAGr8jlkyBDp06ePVSFNBq24a0V+9+7d1jH79+9vrwkvVflLJ5RVe/GWCQCkSlcJltANBwAAIAKtfA4YMECOPfZYq5KdzMq1aRVwzDHHyMCBA+XgwYP2mtBSmb90Qlm1F0+ZAADaI1gCAAAQgXbX0IpnqmkLHa3cR9JZ+UsnlFV70ZYJAKA9giUAAAAR6LgW2l0j1fSYeuxIOit/6YSyai/aMgEAtEewBAAAIAIdByKdu2uke/7SCWUFAIgGwRIAAIAEmjlzpqxduzYwLVy40F4j1nxeXp61jU6pVFFR0e6Ymj/Nj6HrH3roIWte18XDvc+uylw/M2n5xStUmYRKBwB0PoIlAAAACaLBhpKSEpk2bVpgWrZsmb1WZNKkSbJlyxbJycmRt99+205NjY0bN0pBQYG95M/rjh07ZOrUqXaKWPnatGmTNa957+kWLVoUuI4nnHBChwImAICuhWAJAABAglx11VVWBdtNAxPaimD06NHW65w5c2Tp0qXtWnokkwZntMJvaOBEAyMawDF0/qmnnrLmna0edF5bxeirmXcy6V7BBLNOJ7M/3c65D+c6LROzH+cxO9u8efNk4sSJQS1BTN6c5x0pz5pu7gel94G7LMzkPpZz36m8dwCgJyJYAgAAkACmYqstR9xWr15tBVFWrFhhtVLYvHmz9arpqWLyZfKpgRNnq5dw+Vdjxoyx8lxZWWkFewwNFJjz0tYrTs51+r5bbrnFSt++fbu1P6WVfmcLFw3i6Hqlx9H36pQONJ8nnniiNa/npuekedOyNOUXLs/axUnvA73uZr0um+sQqrwM5zXQFkwAgOQhWAIAAJBkWknWFgRakdZWAdpCQV9TTVuSaFBCK/bvvPOOlaavGrDQIIDpguOlurraejUBHhMc0HMxrVHcwR/3Om1Zo+/TNF2nNDjy29/+NtDCRQMP5j0anHC22kgnmn8NWOh11PMyQZRQedbAh55nqGCUClVeRqhrAABIvC4RLPE/4q23DD9+kAzNzpS+GX1kwIDeMnhohr0FAKCr6NevnwwbNkxGjhwpWVlZSZl033qM/v3720cFkk8rwe7KraFdOLTFgLYi0FYBpkVCqmlFXIMSGjAxrUDMWCY6NTU1WWnJpmWlQQUtKw2OuCv/JqCg5aatTDojsOSmedPr6wwI6fXU66iTSQ+XZx0TBgDQNaRNsOTw4cMhp969e8vIs4bKaVefKWNnnSJZF4yUs79/rky4+gsycCABEwDoKjIzM60ghgZM9LM9WXTfeoyhQ4dax9RHhQKpoAERd9cJMx6FdqHQIIAGJZwV7lQyQQgNmJg86KsGLLRVQzz5cnahcY+jod2NnOt0W5MHbcWiZWVas+hrUVFRu9Yt2kXFBFY6k7YM0utrOM/bzSvPt956q3UPOMcncQtXXsqs03241wEAEittgiXnn3++fOtb3/KcTj/9dDn6lKHS/Mw2+fuyF6X188Ny+MAh6d1Xs88XYADoKgYOHGjPpc6gQYOkV69e9hKQXFpJ1sq+tiowkxmPYvHixUGvncUdjFDaFUcr6vHQIIDpXqSBICc9V7NOu6zotoa2YtGWGqY1i75qwMbZusWUoeavMwIDGiAxedDWQOZaKud562SYZa88a3looMp009Eydw7wGq68lAZbdJ1u414HAEisXr5/1I60tLTYi52nuLjYCph40eah6/+xVo45aajs2rJTPvn7Tt837t4yYPhAaXn+A3srAEC60+4xyWxREko6/DvX02iLnu5k7969MmrUqE4JvOn9G6k8OzN/6aQ7l5UGSbTbT6xBo2jKBABSST+H0512606bliXh6K8Mw/8xXFqeaZYDu/dL74OZMmf6N+XE/qfaW0QrX0rrGqShwZ7qSn0pqTRbljfUSWkcB5293Jff5bPtJQDomjojUAIkgt67OoZaqukxo/m76az8pRPKqr1oywQA0F5afXrW19fL7x9/vN1U96c/yYhRWXLG8C/KmUPOkfPOO09OOukkyc7Ott8ZhfxSqWuokdyq8TJ+vD2ViMzqCvEHX96LczbIhpziuAItANDlzKwINGXX6aGFbf3+8xZWiLXo26YieHgEIGkyMjI65ZewPXv2SJ8+feyl0Dorf+mku5eVDiIba6uSaMsEANBel+iGE8oTTzxhPYItMm1R4g+ULKi1kzqFtiwplsa5M2RJvZ0UhfzSOqmUEt9/ldbrjFjeDABpRJs0RqSBkhKRymmLpf1Qk3my8KEiaZq3WN5eWCFTn1osy6KoO9ANJ/W6Y7P//fv3W+Pu6Dg4yf61XlsEaIV+9+7dUY/1k8r8pRPKqr14ygQAUqUrBKz1O2vaBUv27dsna554QgYMGCAnjRtnLeuHvM67RR0s0VYlNblSNX6BhIyVWNsUiWmrsqHMBFbsAEd1kxQVFVrrmqvn2gELfxCmyH5T4D2R9mWCJUHbbZAyz/zpMSpFSnzvEd/21uwS8YdL7P2VrZMp5f79tOUt3DoA6ByRgyUaDLlF5NZ57YMgVhBlor3QZnPlNFkc4QEeBEtSr7uOkXDw4EHrSX3J7sahFXhtEdC3b187JTqpyl86oazai7dMACAVukqwJO1C6dpccEx2tlwwdarU178ixw4dKq+99pq9tgOaGyX0j4+zZXlNkTSV2d1z5lZLTrlzbJFsKcpd419XtkGyi67zvcNn9nVS1FQW6NYTCIiE3Zeh202RdXPt7cpEir362OTPEt9WskpjHPWrfHNTZFbQZr68FYuU2MeSosrgfIdcBwBpKG+qTJJN8pTXB/bqxTJt0QrZvGKRTJtWKZs3V1rN0iMFSoBE0sqn/qCjwaBkTnqMeCq6qcpfOk2UVfsp3jIBALRJu2DJ8OHD5dChQ7LpmWdk5sx/khEjRlhPT+iw7FwJ+XT+/HGSIxtkjWnWUb9EqjZkS27gDc1Sfbe9snaNb8scGadBhy2N0lxYLnXOCETEfdms7bKlqMYebLa80JfF9jnMnzVFZN0quyVJvaxaJ1J0nXOgFV/eSuyWJl75DrkOALoSbXGyVtYunSMT5+ijPEtk4sQS32uFMGwJAAAAEi0tO2l+8UtfkskXXCD9+veXfv36Wcsdoi0ymgtleqIHc61fIjPGj7fGEtGAR+wPq9GuN3bLEp3aDagyW64rypbsoprAE3xqtM9P4XR/y5Z28mVcjj3bTrh1AJAmtjTJO6MnydR2gd0tsmzeNFm0YrOsWDRNplVutrrfTPMc1wQAAADomB4y+le9LKnaIIXlroBGfqmU6nL9VmkSRzDFl15c6GgdEkH9khkyt7pZcrS5SbT7srfz7HpjzJ4uhc3VMtcZUBk/V6qDAj/ZMsX0y9EuO9nOY4VbBwDpaLVUrxCZc8tCR2vAmbLQevxNnkwds93qojOzQGQjURIAAAAkSQ8JlvjULrDHD7G7vehUKbLKCh7UygLnOmsskTCDwRqzlztafDRJlTV4arT78m8njlYjDa6mKbOnF0pzoAuOoV1xmqUwEC1plqZcf8uWBmusFOexwq0DgPS0Zdk8WbRpkiwNPDq4QJqs0V63yLLFy6zxp1YvpkUJAAAAkidtnoaTnZ0tQ4cOtZei8/7778u7775rL/VE9hNvPB9FHG4dAHSOUaNGSa9eveyl1OFpOKmng0wCAAC48TScGDU3N8uLL74Y06SBkp70aDwA6Op0AO9U00eDAgAAALHo8t1w9DnyAICuoTN+Sdi9e7c9BwAAAEQnbbrhAAB6Bu2eMXjwYOnTp4+dkhzaomTPnj3WhNSjGw4AAPDSVbrhECwBAAAAAACwpdWYJQAAAAAAAOmAYAkAAAAAAIADwRIAAAAAAAAHgiUAAAAAAAAOBEsAAAAAAAAcCJYAAAAAAAA48OhgAACACLZN/h97LjnGrv+RPQcAADqbPjqYYAkAAOhWWltbJSMjw3pNlK0z7rPnkmNc3ffsOQAA0Nk0WEI3HAAA0K307t07oYESAADQ8xAsAQAA3cqgwRnypX87V65e8Z3AZJh5ZxoAAIAbwRIAANCtnH7NWTJhUr7seG2HPLvyWXllU72V7g6UxBIwWVl8usyfONJe8jtwx1fknDGD7SWx1ut2Stc5J+d27nW3X5prr2mvrq5OGhoarEnnDV3Oz8+3lxLHa7+67ExP1rEBAEgnBEsAAEC3ooGS3Ts/k7qyNfLqL1+X5376vJV+/5wHPV+j8fjLu+SyM4bbSxIIfnzjCyOsVzV+VKa88f5ee0lk0p0vSr8b/0/uWr9DfvXtPDvVz6zT6aaVjXZqGxOgqKqqkvHjx1tTSUmJzJ49294iderr663j6ysAAD0FwRIAAJBWHnzwwbimU0891d6DyCe7PrXn2nSkZcnL7+6RU0YMsJf8QRINgpxyXKadIvLV04fKw3/baS+10WDIScMHBrUuiaSyslLKysqktrbWTvEHLZzLAAAgeQiWAACAbufo4UfZc2060rLkhe27rVcT8DCBkZmnHWstKw2ImO06QluVZGdnRx0YWbZsmdUKRSedN5xdeEyLFK+0aOj2zq43eXl5gf2Ulpbaqf7tTH5UqLw5t9M8OfOi884uRwAAdAaCJQAAoFs4++yzrVcdq2TwiCEyo3y6nP7tU61XI55AifHGzs/ljOMH2Uv+AMrq1z6yAig6XonOe9ExSd7atS8okLLphrMCY5a4x0JRzc3N9lxkCxcuDHTVmTx5shXU0IBDY2NjIF0DL15p8SouLrb2MXfuXCkqKgoKpDQ1NVnrlFfeDLOddjW68MIL7VSx5jUNAIDORLAEAAB0CwUFBTJs2DBrrBINmIw+bbScd+l5MmJs21gjHWHGLdHghgZOlI5Rol1y3OOVKBMQuX7yaDmt4gU71c85ZskDm/9hp7bRliXR0iCIab1hbNmyxQpOOFt9eKXFS8dPUdo1aP369VZLE2PVqlX2nHfeDLOdBm00X0Zubi7djQAAnY5gCQAA6BYyMzPlBz/4gQwcONAKmGjrEZ1+Oe+39hbB46HEyoxbooERDZwo7Yqj45Z4jVfiDIjEQgMQ2rJEAw2RaEuN8vLyQOsN0yLFDMqqNFCh+/JKSwQNbngJlTcv1dXVVhBHp3Xr1tmpAAB0HoIlAACg2xg7dqz89Kc/lcsuu8wa8FVbaOjrVVddJbfffru9VXxMNxptKaKBE6VpOm5JosYrMbQbigYanAEN073GSVt0mCCErne3SFmyZIkViBg3bpyd4p0Wq1mzZlmv5pheLUEi5c1JW5lMmTLFmpwtUwAA6Cy9CgoKjrS0tNiLAAAAncu0+ij+3net10Sruu8X1ut3vhP903C2zrjPetXxR7QVibNbzcri063XS6tetV6Vdr/RliVeARSvdePqvmfPtdEAQ01Njb3kH8dkxowZ1ry2DNHxQrS1iA6GqoEIE5jQLjIaqNBgi6EtOzTQ4k5zc3eX0aCKBlecx9N57Xpjus44n9rj3E555c3sw7mdMgPA6jgnAAB0pqysLIIlAAAgvaRzsCRZvIIlPY0GS5588knGKwEAdDoNltANBwAAAJ1KW9EwsCsAIJ0QLAEAAECn0a462t3IPGEHAIB00EO64cyW5Q3lUrihTMYvaP+LRX6p7x/pIpHquTNkSVvX2cTLL5U634ECw5s1V8vcGUskmYf0li+ldTVSZDKS8nzY18Ne8mXAUfa6rlgaY70Ws5dLQ7lvjyk7F/c56KHnyoy4bqA4z7mDZi9vkHLx/puIneMcRO/zKbIuEedj/c0kaF8O1t98bpXv3MV/HflsANJKOnbDAQAAPUcP64bTLM05xVKaby8GzJbrAlGDJApU+vyPz9OprClX8uzVKaP5aKiR3Kq2fIwvEZmVmKcHxkADJP7jz60WKaoslXaXJiStmNc5rqVvubxQNpT59pfSCmbbOYwfXyZNRTXSsDyRBek+zwTy3QfFORtkg+ffRAfVL5EZ4+MNLrjOuUP7CsF37pVT1sncQHCEzwYAAAAAwXpUN5ymJpEps1w1otnTpXCDr9JoLyZHvpRWFklTWXClr3bBAkltz1yTj/ES9CO6r0K6JLUZCVK/pEo2ZE8R96WJTbM0brFnO0WtLJhbLc2F031V7PSXP2uKyLq75e51Hn8T3Zz/3FcFBdX4bAAAAADg1KOCJY13V0lT0XWOyqyvolKcI9V3r7GXbVbriwbrsXY6tTUWsH/1Ll0eWFfn/Dk61PvyZ8mU7A2yJkztR7tEmPe1tU6wjze7bb+6SrsGmG1DH395+0p7xHz4j7d8ue7ffn/IstCuPO50r7SOaV8umkft/pItRTWatjxoOVAeEa5h2znGWMbh1K+Sdc2FMt0cy/N6RCojzY9vneu8AvdEhPNynkfofOeLP15Q78uyFS3xpRjh9hPtMeztAqu8zznytTVpjn1FOv9Qf5sBbefu1OM/GwAAQFraNvl/kjoBCC0tgiVvXDCkQ1P0amXNBmdl1ldRkXUSXG/yVUJq/K0vrCbxc6slp9xZ8fNV5HLX+NeVbZDsQAUrwvuaG8U0fGir0LStr11gv298mWwodHYJ8B2vWKTEPl5heYNUSkmI4zua8peJFDsrS4YjH96yJadR96+/bIc5p9nXSVFTmT/dN1ktVbzSopBfWiyFze7r4Ne+XGplgc6bLjALFgQt+8cMiXwN287RvxxdGccixPUIW0YaVCgX0Xy7zss/nkbk8wqch2+dFFU61jk473sN8PiWghtVhNtPlMcI0HOqkSnr5rY758jX1n0DRXH+nn+bTnmSm90kW9vda3w2pFK/fv1k2LBhMnLkSKs/aDIm3bceo3///vZRAQDoeg4OHJbUCUBoadmyZH/rEfn4YKt87ns1dF7TdF1H1N7tq6gU+8fHmH2drwJT5RrjIn+c5Piqa4FfeuuXSNWGbMkNDCDgq8jdbWp7a3xb5sg43Vmk92W3jUFQv2SGv+JjL1t0gFKrkqS/rDv5jldi59E6XnPbr+Ltju+rPOkv8rqf8kLfIT1GPXDkw5tj/+HOaUujNBeWB/967ZUW8hfttrzWFDVJWaixRkKWSxhRXMPglgVRlnFU7O5Aoa6HVxnZplT6gwohg0xRnFfgPNqtaxPcDaVetHFJ0XXOsEK4/UR3jAC75USV16AjsV7baM7f628zSj3+syFFMjMzrSCGBkx6907eP0G6bz3G0KFDrWMeOdKxfzsAAADQs6RVsKTVNz3X2Cyz616VMb96SS77Y4Ose71J/vxak1zqmx9T/ZLMfuJ1eeGtZmvbuJhf0mfrAJfVYuo2SVW/VZpMxcWLBhSsBgX6y+9cqW6202O2wd6HPblr3e5uIh3hq/DN8B2jRCqtCpjVOyBMmj9PznEYfBU980t3ULpDwsolRazAgLPVgsf18Cojiw4k2pzASmy+jMuxZ4P4By3N1sForQq4Bqt8xw451kqo/ahw6yJIx2vbkz8bUmjgwIH2XOoMGjRIevXqZS8BAAAAkaVVsOT5xmYpefFj+dO7B2VARh9Z+8EBuWLTR/L1Zz+Sp94/IAP695E/7fhcbmrYLS+/tc1+V6zqZUlVkxSVF7Ub5NFiVV6Cx50oLnT8KhxK2PfVyt3aY6EmxFgBebmSbZriWxVuKzU29vHDN6/Xc/c312+rpPv48lrqlbEoykJ/CZ/rq8HlOGp7Xmlxibdc4r2GHWK6WtiBnwjXo30ZNcu6khlSJt6tTiwRzyu7bZBSq7w8zlkHLdXH0jorzlYl3LHfsPuJ4hhOdoCuXTnEc20Tcl23SGNzqOBET/5sSJ2MjAx7LnU645joGH2kr04HDxyKakp1y6Fly5ZZU7Ll5+dbQW19TbTZs2db+66rq7NT0lcyyyEeycqL2a/7fNPl3NPpGqQbLRuvzwT3dXRO+jeo73Gn61RaWmq9R60sPl3mTxxpL/kduOMrcs6YwfaSWOt1O6XrnJNzO/e62y/Ntde0l+jPOT0vLQudzHxHJXJfgJe0CZZo95r/eu1T+b8PDkv5aYNky9fzpeLUwfLJYbGm288cLK/PPV1uOW2wPP2P/fLfr++Jv3VJ7d2+ymGIrgG+yos+1SSn3P7Asvr6h2j5ECT8+6zm9WUi5brOmsolp7rE/wQMzY8USY2mV+ZKU1y/HvuP76t12fv3TUEREVvtAnvMBJMPPabIKs8TDHNOga4B/m40Vll6pXVEyHLR8SXsbgVe5xgu3wnl6NrQUCyNc51jkIS4HhHKqHbBXFk3xfeeOu0O4j7PSOfVLE25/hYrDc7AjcPs6YXS3C4QoF1xmqUwUJsPt5/IxwhWL0tm2I9V1vf4Jv+pxHNtE3Fd/d2OQj4BqCd/NqRIMrveoOc6dPBwygIm+qU8NzfXmpL9Bb2+vt4KautrPPTvPVQey8vLpaysTGbMmGGnpBdn3jtaDl1NupxvuPsnWuH2kYj9RysVx9LPBA2AhDN3btsYbrW1tbJw4cLAsnP9kiVLrGX1+Mu75LIzhttLEgh+fOMLI6xXNX5Uprzx/l57SWTSnS9Kvxv/T+5av0N+9e3gVstmnU43rWy0U4NpWSXrc66j93dP/mxA6vUqKCg40tLSYi92Dh2k9aMDrXL8r1+S4Rl9pP4b+XJ0396ya/c+yXr4dRnev4+8cuV4GT4gw5e2V057bKvs3n9YPvmXs6Rf715yytOf2XsCeqrZstwK2AQ/gjZ24faTqGN0svxSqasUKQk1Tg6SSgdfjcrMCllbMtFeENmxYpHMW2a1sZG8hRUy9anFsuzECqmQxbJ4tZUcVmf/O4fYXH311dbr/fffLw8++KA176YtT5zbqYy+faLqclV13y+sV91HrJy/+CpnpSbdaKVCK19eFYlw69JBOucvWXkLtd/OKgv3cePJR7j3pPK8kn0s3b8GH4uLi4MCkM7jRspDqPVHF//GCnicVvGCtWxag5xyXKZcWvWqNf/a4nPkW7/cIi9s3221GNGAiM4r57J7nRpX9z17rk0yPucSdQ0StR8gEv3OmjY/8envQfsPixwzwPdlx/6e06uf/ykG2oA6o48/q7369BHfJrLfWgKAGNUvkZJ1U6SmE1tXIAIrUCJSOW2aTLMnEygRyZOpk0SafIt5OSLb37aT0W1oAKSgoMBeiky3NUGTvhn9rEBIpKkjpkyZIqtWrbImnQ9Fv9Cbri46OSsfumya3yv9ldRsp5Pz12ldNr+iurdz0u40Jt0cV9XU1LRrSu9cZ/IVKQ/O/Lq5j63c7wmVd7ONTiafZr0z75pmykHnNd/mfc6ydR7HbGPe5+R1XC9e5+YUaj9e74u0LyfdxpnvvLy8wHvD3Uuh8uPcTvPhPL7Oa5qT2Z/7/gmVD6/jhtqH8lrntQ9lls17wl1j5zqdlHl1Hive6xrOli1bpLGxMahcEsEENkyLkq+ePlQe/ttOmXnasdayOmn4wKAASEeF+5wzZWbKx30/hlrnpOuc97fX9fC6BjqvQn02uK+/89rqsrlfzDwQSVq3hx7Sv5dsumCYrPzyMXLo833ywZ7P5cjBg9byc770vr0ZsA9A7KyuL504yCnCyZOFV50gKxYtlnYNRjSIsnapzBk9UUrWrpWlcybKnKVrpWKmvR5dngmUbNy4MdBaJBzdRrc1AZN9+/bZa5LDfCHXXzTNr5rOL/xu+iuzNhHXX0GLioqCtm1qago0vdcv/vqrtNlWu8h47Ve30/W6nW5vvuxrRWPdunVWuk7avN/sW7fXpv5OznXmF+NIeXDm18nr2Ib7HL3y7uyGMHnyZOuY5j1eeTdycnIC+9KyNZznEY7Xcd3CnZvhtR+toGml2fk+r7RYRHsvhTsvs11VVZVceOGFdqpY85rmZPbnvgYmH+5y9zpuqH0or3XR5F2Fu8Ze95nZzhwrmmsRLi/h6Pvc18dJ82cq67F4Y+fncsbxg+wlfwBl9WsfWQEUHa9E571oK5S3du0LCqRsuuGswJgl7rFQlMl7uM+5cPdjuHVeQv2deV0DnVfO+8bJeW/oNu7PsVCfG0AoaR0s2XtQ5K6398gdb+2Rf93ULNf/pVH+9dnt1vLPfOmHeBIkYKuVBeMT0T0m3H4SdQwgjLypMkk2yVOmIYnT6sUybdEK2bxikUybVimbN1darU6i6YaDnsMMDhvNFKtZs2ZZX+oNnb/22mvtpfZKSkqsV61wrF+/3vpV3tBfbJX5Im8qCF7bKrOdqWxpJUC/+Gt6dnZ2h5rJR5MHk1+nSMd2n6M770orrvFUHu+55x7r1eRZj6FTc3NzIC1cmUQ6bqRzM7z2oy0MtHLn/OXaKy0W0dxLKtx5me20fDQvho5LYcosEpMPZ7mreK+jUzR5D3eNTV687jOnaK5FR85HK+KhPhe0Am8CALEw45ZocEMDJ0rHKNFxS9zjlSgTELl+8uhA9x3DOWbJA5v/Yae2ieZzLtz9GG6dW7i/s1ivgbn+5t7wOr7X5wYQTloHS1pbj8irnxyUlxzTCx8clN80f25NqR79HgDQWfJk4UNrZe3SOTJxzlJZu7ZEJk4s8b1WCA1Lug93S5FIYm2J0lH6S6RO5gu8zjsrneFohTQRTEVLJ69fVtOZO+9aUdEKrUnTSnAqJOq4ofajlTRdVnqfaKXPKy1eoe6lWM6rurraChbo5KwYxyMR5ZnIe8HsQyevv5FI16KjedGKuF6jjlxjt5ff3SOnjBhgBUY0cKK0K46OW2K65Tg5AyKxivVzLtxnW7yfe4m8H4COSJtgiXao0RFKPj4kctCOgQzO6CW/PPcYedgxLT37KBnUR6wJANDNbGmSd0ZPkqntfojaIsvmTZNFKzbLikXTZFrlZtlcqeOZeHTXQZdmAibRSlWgRCs++oXdfHl3fokPVSnSX2iVfvHXX0/Nr5lOWnFTZh+6rVZM3Nua7dy/hmu65iHeFgsq2jy4RXvsUHnXX3xNJciUUUfocXQf5jxC5Sua40ZzbpH2o7+Wa1Bi3Lhxdop3WjSiuZdiKU9tqaFjUZixKToiEdcx2n2Eu8ah7rNQQl2LaPOigQRd70VbV2hlP1FMNxptKaKBE6VpOm5JIscr0XLVc4/0ORfufozmXjVC/Z3Fc0+Z6x/r5xgQTtoESzIzesm00QNkx57D8tPn3rKeevPZ/gMyatTIwDRy2FD50/sHxLeJ/JNv24woxyyZvdwfGXVPdaXJaXqlx0vWvgGge1st1StE5tyyUNriJTNl4UJdypOpY7ZbXXRmFvgqyURJui0NfpgAiFf3GZ2Uc7tk03EdvH6B1zTn+A9O2gVAv2+YfvShmL71Zltd9qLpzl98zQCH+vQNZ7qpLGgTdN1fNANURpsHt1DHdvPKu6nE6HJlZWWgcqRiybuTlrM5j1DCHdcp0rmF2o9uZ96j79dKuVdaLKK5l6I9L6UVSx23QydTyXSL9hrEex2d62LJe7hrHOpvxHmsSNcilryEomWqgRg3zYM5drRBHeOPr37YbvwRHask1Hgl8Yj2cy7c/Rjt557h9XcW7z0V7+cYEEraPDpYvfBWs9zUsFue/sd+Gdbf/9QbJ+2h98H+wzJlZH+588whckb2GCs9+kcHp+rRp/lS6n82KeM7AIBDtI8Ozlv4kCydM9pe2iyVHWxBwqODkWr6ZV2/qIeqiEZL96O/7CJ2+suyVpgoP29a2XzyyScDFdOuqCdc460z7rPnksPr0cHhhPtsS9TnHpAO0urRwersk7LljvGD5Iqs/rJ7/2HZ4Zo+P3RYrsweYAVKJtiBkvRUL0uqmqToOu9fVwCgp4p2rKkty+YFHhtMVxv0VPoLazy/asNPB6Wk/LxpkEHHk+jKgRLFNQaQTGkVLNHMnHXSWKmZNV4++Zez5HPX9EHRWfLbi06zWpQk5KHB+aVS1+Bv8tXQsFxMaCOo287yQKosb6iT0tlt79FV+aVtzwUP6nqzpVGac8YJnXEAoM2hQ4fsudQ5fPiwPQd0DVqR1e8V2pzcPFkC0dHHkJrvZTpegTbxRzAtI22N0VXvLa4xgFRJq2448YqvG46rS87s5VI37m6ZEdRvxr19uRQ2V8vcGUuk3rd9Q3mhNFfP9b/HWhYpG79A/DF63X66rAksAwAyMzPl6KOPtpdS45NPPpG9e4MfqwgAAACEkjbdcDTY0ZEpLvnjJEeypajGH5nWwEd2rj2coAY+rIh1uRT6U2zNUl2yRKxwSu0a2eBbXrfKDq5YyzkyLtCUZIs0NjuXAQAatNDgRSpae+gxPv30UwIlAAAAiFladcNJvQ1SZj8Sy5oW1Pq75lgtRDRtrlTH3Q0yT3Kzm2Srs6EKAMAKXrz//vvWoKvJnPQYe/b4H7EIAAAAxKLnBkvqt0qTFEqx+xG/ebmS3dwoW3Q+f5ZMif1R8X7acsXsBwAAAAAAdBk9uGVJrSyYWy1S1Pa8c2sw19q7pVqKpEaXK3OlKd6WJRp0adrq77IDAAAAAAC6jLQY4LX7yZfSukqREnvwWAAAAAAA0CWkzQCv3c3s5TVS1FRFoAQAAAAAgC6IliUAAAAAAAA2WpYAAAAAAAC4ECwBAAAAAABwoBsOAABAlPr16ydDhgyRjIwM6d07Ob85tba2yqFDh2T37t2yf/9+OzU6qchfOqGs2utpZdKR8wWAUOiGAwAAEKXMzEwZNmyYVaFMZkVS963HGDp0qHXMI0eO2GvCS1X+0gll1V5PK5N4zxcAIiFYAgAAEIWBAwfac6kzaNAg6dWrl70UXmfkL51QVu31tDKJ5XwBIBKCJQAAAFHQrgmpFssxOyN/6YSyaq+nlUlP/xsAkFgESwAAAKKQ7l0Tult3kmSirNqjTAAgGJ+KAAAACTRz5kxZu3ZtYFq4cKG9Rqz5vLw8axudUqmioqLdMTV/mh9D1z/00EPWvK6Lh3ufXZW5fmbS8otXqDIJlZ6uvPKraUZXOx8ACIdgCQAAQIJosKGkpESmTZsWmJYtW2avFZk0aZJs2bJFcnJy5O2337ZTU2Pjxo1SUFBgL/nzumPHDpk6daqdIla+Nm3aZM1r3nu6RYsWBa7jCSec0KGASXfFfQKguyJYAgAAkCBXXXWVVcF208CE/uo+evRo63XOnDmydOnSdi09kkmDM1rhNzRwooERDeAYOv/UU09Z885WAjqvrWL01cw7mXSvYIJZp5PZn27n3IdznZaJ2Y/zmJ1t3rx5MnHixKCWEyZvzvOOlGdNN/eD0vvAXRZmch/Lue9U3jvhuPOpwTevPOqylpNpuaSvZjv3+ZvtdDL70FfzXgBIBYIlAAAACWAqjNpyxG316tVWEGXFihXWL/GbN2+2XjU9VUy+TD41cOJs9RIu/2rMmDFWnisrK61gj6EVW3Ne2nrFyblO33fLLbdY6du3b7f2p7QS7GzhokEcXa/0OPpendKB5vPEE0+05vXc9Jw0b1qWpvzC5Vkr+3of6HU363XZXIdQ5WU4r4G2YEpH4fKo11WDTkpfdTudnPeTMttpMM+0hnK2egKAVCBYAgAAkGRaSdYWBFop1F/OtYWCvqaaVjY1KKEV+3feecdK01cNWGgQIFxltLq62no1AR4THNBzMa1R3MEf9zptWaPv0zRdp7Qy/Nvf/jbQwkUDD+Y9GpzQAEI60vxrMECvo56XCaKEyrMGPvQ8QwWjVKjyMkJdg3QSLo/m3JTec1p25u/Aazt9Na2hnK2eACAVCJYAAAAkgFaC3ZVbQ38l1xYD2opAf3E3LRJSTSubWunUgIlpBWLGMtGpqanJSks2LSsNKmhZaWXYXbE2AQUtN21l0BmBJTfNm15fk1el19O0jjDp4fKsrSPgD5RolzVTdqGY+0C3V+ECTQCQaARLAAAAEkQDIu6uE2Y8Bu2eoJU9DUo4K9ypZCqbGjAxedBXDVhoq4Z48uXsQmMqtYZ2N3Ku021NHrQVi5aVac2ir0VFRe1at2gXFRNY6UzaMkivr+E8bzevPN96663WPeAcn8MtXHkps0734V6XLqLNo2nZ5L5n3PR+0L8Z930BAMlGsAQAACBBtJKslTrTvUAnMx7F4sWLg147i1elUyuuWlGPhwYBTPcirdQ66bmaddplRbc1tBWLttQwrVn0VQM2ztYtpgw1f50RGNAAicmDtgYy11I5z1snwyx75VnLQwNVppuOlrlzgNdw5aU02KLrdBv3ulQxZRKqe1Q0edSgnF5r3c59z7iZ+4IuOABSrZfvA+pIS0uLvQgAAAAvo0aNkl69etlLqRPt97TOyl866c5lpYEF7fYTa9Coq5eJBpI0wKTdm6JBvQZAImRlZdGyBAAAIBqHDh2y51Ln8OHD9lxknZG/dEJZtdfVy0QHRo6lFU0s5wsAkdCyBAAAIAqZmZly9NFH20up8cknn8jevXvtpfA6I3/phLJqr6eVSSznCwDh0LIEAAAgSloJ+/jjj1Py67Ue49NPP42p4pfK/KUTyqq9nlYm8ZwvAERCyxIAAAAAAAAbLUsAAAAAAABc0qJlycCBA+05bzoy98EDB+To4/pLa8YR+ezd/dLH95qR2Vt2f9izBzMDgK6mX79+MmTIEMnIyJDevZMTs29tbbUGK9y9e7fs37/fTgUAAAAi05YlaREsOfbYY62ASagvzfpFd9BJvWXM9JNk96698sGb78vos0+w1r14999k3z4CJgDQFXTWAJl79uzp8Y9UBQAAQHTSJliiGbn55ptDfoGura2VrYO3yN7398i2tTvkhK+MlOPPGS19B/WTv935V9m3j8eEAUBXMGzYMKtlSSppC5OdO3faSwAAAEB4XWbMkuOOO04OfnZARuSPlJwZY2TPm5/Imytfl7f//CaBEgDoQrTrTap1xjEBAADQtXWJYMnEiRNl+D+GS8szzXJg937pfTBT5kz/phSedKHVpDuy2bK8oUEals+2l4Pll9ZJQ0OdlObbCbOX+5Z921vTct+7NcksB091gTfFL5n7Dpx7YHKcZyzyS6Uu3vcCgC1ZY5QAAAAAiZQ23XCuvfZaufXWW2X4sGEyYMAAe41/vJIPPvzAakZ96PAhkSO+L9t9ektGn77ywx/+UH72s59Z/dHD04BBseQ0i6wrmSFL6u1ki64rl0Jpluq5vnVSKnU1uVI1foHU6ur8UinNWyJLrAXl31ejbhu0n0iieV8y9h28TgNDNVPWydwZSySmQ3RIvOcFoLvRz/uozKyQtSUT7QWRHSsWybxlW6z5vIUVMvWpxbLsxAqpkMWyeLWVHBaPyAcAAEC00q4bzpEjR+SSSy+V7//gB4Hpsssvl4w+GdJ6pNX6RVIDJerQ4YPWayyamkSmzHI1jZg9XQo3bJAN9qLk5Up2c6P4v5L71DsDJV1f/ZIq2ZA9RdzFAABpwwqUiFROmybT7MkESnwf0jJ1ku/z3LeYlyOy/W07GQAAAEigtAqWHDiwX5577jl5/bXXpKzs3+W9996TV199Vfbs3WNv0TGNd1dJU9F10tYZJ19Ki3Ok+u419rJP7RrZkF0kldH2N7G6p5guLv4uO9Z+69q6viyfrS0rtPVKthTV+NJCdAdqJ5n7tuh762T5cu2GZO8/6Ji6f2tDH/+2gWLxzJtKZP4A9Dx5svCqE2TFosXSrsGIBlHWLpU5oydKydq1snTORJmzdK1UzLTXAwAAAAmSVsESfayjPkZ437590nr4sDUdddRR0sv3X2LUypoNhTLd1NfzZ8kUWSergrqG1MqC8XNl3ZQaV7DAy2xZXuPbw9zxMn68byoTKdZowuzrpKipzJ/mmxbU6j7LZIPV1ceXtiCapirJ2Xd+abEUNjvPOVtyGkt8+9JuR3rMImkqs485t1pyyr3GKQmRNytQUiNT1s2NO38Aeri8qTJJNslTgeZ9DqsXy7RFK2TzikUybVqlbN5cabU6iaYbDgAAABCLtAmWHD58WDIHZsqZZ54p//d/G6V///5SX18vp556qgwaPNjequNq766WnOJSX7Ve4w5F0lTlNXZHvSyZYYIFYQIm+eMkx7SY0JYU5YWSnZsnsqVRmgvLOzZAa0L33bafmqImKQsar6RZ1pnIiXXMDbLGxDPql0jVhmzRwwYJlTcNPmVvkCoGJgGQcHmy8KG1snbpHJk4Z6msXVsiEyeW+F4rhIYlAAAASLS0CJboWCUvvfSSnHPuubJ3zx754IMP5brv/0D+adYsGTt2rJx00knS2tpqb91B9atknUyRWbNLpTinWu4O19ChfomUVDdLYaApipcNUma3orAmbTnhe98M33yJVEbROiWcRO3bbtVh7cceuLbDPPIGAB21pUneGT1JprqDtLJFls2bJotWbJYVi6bJtMrNsrlSxzPx6K4DAAAAdFBaBEs+++wz+etf/2o1p3722Wfl4osvtoIk+lhgfTLOpZdeKr179bG37qh6WVLVJEXlRSLrVrVvVTK71NHtJF9mTcmW5kav9uA+9VulSQrtLijt1S+ZIXOrmyVnXBwtTJK571DsY7Z1UyqV4kJHSxMjVN40ENUcOs8AENlqqV4hMueWhdIWL5kpCxfqUp5MHbPd6qIzs0BkI1ESAAAAJElaBEv27t0rp512mnz00Ufy4Ycfyhe/9CVr/BJj9OjRcv7558uE0yfIV/9pVmBybhOT2rulujlEd5HarZJrupc01Fjjg8wI2a2kVhbMrRYp8o9vYk3a1GP28sCydnvxH0fHS4llkNNk7jsU/zG165F1DGtcEq+WKCHyZnVfKpMmR7o/O4nKH4CeYMuyebJo0yRZunatrLWmAmmynoazRZYtXmY9rWz1YlqUAAAAIHl6FRQUHGlpabEXO4e2Hlm4cKG8tXWrtXz5FVe0C4ToU3L++Mc/ytChQ+0UsQaCfeutt+TQoUN2CpJHn2ozXdYkrBsPgJ5o1KhR8Qe6O6Cz/50DAABA15GVlZUewRL94jxhwgS5/PLLrXn3F2kNhvzud7+TN954w05BymmLluJGmRs0OCwAxGb48OHSt29feyk1dADx999/314CAAAAwkurYIlOQ4YMsVPa+/TTT62BYJFi+aVSV1Mk2dYgsTOEB90A6Agdi+roo4+2l1Ljk08+sbp7Ah2xbfL/2HPJMXb9j+w5AADQ2dImWAIA6Dk0YDJ48GDp0ydRA3d70xYle/bssSb0LPoEvYyMjMQ9Sc9n64z77LnkGFf3PXsOAAB0NoIlAAAAUSBYAgBAz6HBkrR4Gg4AAECiDBqcIV/6t3Pl6hXfCUyGmXemAQAAuBEsAQAAXdKDDz4YNF111VVW+unXnCUTJuXLjtd2yLMrn5VXNvkH3HIHSmIJmKwsPl3mTxxpL/kduOMrcs6YwfaSWOt1O6XrnJNzO/e62y/Ntde0V1dXF3gcv853BemUZ81Dfn6+vdTGK12Xnemh3gsA6BkIlgAAgC6r+HvfDUwPP/xbK00DJbt3fiZ1ZWvk1V++Ls/99Hkr/f45D3q+RuPxl3fJZWcMt5ckEPz4xhdGWK9q/KhMeeP9tsGEJ935ovS78f/krvU75FffzrNT/cw6nW5a2WintjEV96qqKhk/frw1lZSUyOzZs+0tYpOKin+i82ykKmhRX19v5VlfAQAgWAIAALqdT3Z9as+16UjLkpff3SOnjBhgL/mDJBoEOeW4TDtF5KunD5WH/7bTXmqjwZCThg8Mal0SSWVlpZSVlUltba2d4q/MO5fTTVfMMwAAoRAsAQAA3c7Rw4+y59p0pGXJC9t3W68m4GECIzNPO9ZaVhoQMdt1hLaiyM7ODhtkcLe2cC47u8Foqw59VTU1NbJs2TJr3rQCcW5nON9n5ktLSwPLOu8WTZ4jHdPrGDqvnHnXNJ0368LtN1b6flOOKi8vL7Bf53nrsjMPZt6kG87t9Lo486bzXaVrFQD0RARLAABA2nGPR+KcQund2/+1RscqGTxiiMwony6nf/tU69WIJ1BivLHzcznj+EH2kj+Asvq1j6wAio5XovNedEySt3btCwqkbLrhrMCYJe6xUFRzc7M9FxutgDc2Nga6wWjwQl/V3LlzZeHChda8Bh+0FYiu0/Ty8vKgIEFxcbG1TrfRdcosFxUVWctukfIc6Zg5OTntjqHLypl31dTUFFgXab8dYcpB96t5cu7XmQfNm87rNHnyZM/ttHvShRdeaKeKNa9pAID0RLAEAACkJed4JGYKp3cf/9caHatEAyajTxst5116nvUazpEjR+y58My4JRrc0MCJ0jFKtEuOe7wSZQIi108eLadVvGCn+jnHLHlg8z/s1DbaSiMeW7ZssSrrXq0/DFORN61AtKvM+vXrrVYUho41osw2q1atsl7NslcwIlyeoznmPffcY72GO4Zh8hPNfjvClIPXfk0elAapTMsSN2fZ6bUxcnNzA/kGAKQfgiUAAKDLqrrvF0HTzTffLAMHDrQCJtp6xExG334Z1uRsodKrVy97LjwzbokGRjRworQrjo5b4jVeiTMgEgutmGsrjXi6k+h7TWsHrbjHs494dCTPXYUGN7xowEZbs5iWJeFa2FRXV1uBLJ3WrVtnpwIA0hHBEgAA0G2ceuqp8tOf/tRe8i9rLKRPn96S0bePnRof041GW4po4ERpmo5bkqjxSgztnqEVcGfwQSvlZlkr5KaVg1eAYsmSJVbFfNy4cXZKGw1sKPM+3a+2eOhoK4dweU7WMZO1X2PWrFnWq+431Jgseh1MgMRsF4q2MpkyZYo1OVumAADSD8ESAADQrWRmtj2hRluaZPTNsLroRNuCJJw/vvphu/FHdKySUOOVxEsr5Wb8DdO9Q582YyrrJjCh6c5xMDRoYLbXMTY0aKK0C4lzkFTnvjVdlzsqUp7jPaY7727x7le3NfkM1W1Jx1Ex+9VxUbyY89Pt9HzDtSzR4I6OKaOTCfQAANJTr4KCgiMtLS32IgAAQOfTbjJeY5RoV5vvfMf/yN9wg706t4m0n2hsnXGfPZcc4+q+Z8+hu9Ogz5NPPhkIsgAA0k9WVhYtSwAAAIBU0G46DOwKAF0DLUsAAEDaibbVSCixbBMNWpago+rq6qzxTLSbEF1wACC9acsSgiUAACDtpFuwBAAA9Bx0wwEAAAAAAHAhWAIAAAAAAOBANxwAAJB26IYDAG22Tf4fey45xq7/kT0HQNENBwAAAADS3MGBw5I6AWiPYAkAAAAAAIADwRIAAAAAAAAHgiUAACDt6HgioSZD5xcuXCjbtm2zU1Jj2bJl1pRs+fn50tDQYL0m2uzZs61919XV2SnpK5nlgMQLda1Muvt6dta1TcbfgO7P67PBfb7OSfOh73Gn61RaWmq9R60sPl3mTxxpL/kduOMrcs6YwfaSWOt1O6XrnJNzO/e62y/Ntde0l+jPOz0vr/ugIxK5L8CJYAkAAOiy9u3bJ7fddlvKAib6ZTw3N9eakv3FvL6+XsaPH2+9xiNc5aG8vFzKyspkxowZdkp6cea9o+XQ2bpiJS6ZeU6X65msvwH9bNAASDhz5861ykCn2tpaK+hrlp3rlyxZYi2rx1/eJZedMdxekkDw4xtfGGG9qvGjMuWN9/faSyKT7nxR+t34f3LX+h3yq2/n2al+Zp1ON61stFOD6T2QrM+7jt4H3ekzAumLYAkAAEgrV199tTUpfZqN16TMdhow+fGPfyzfLb5air/3XWudk6a5p3jNmjVL1q1bZ00635Vt2bLFngN6pmT8DVRVVUlxcbG9lDgvv7tHThkxwF7yB0k0CHLKcZl2ishXTx8qD/9tp73URoMhJw0fGNS6JBrd6fMOiAfBEgAAkDY0+FFQUGAvRabbmsBK34x+UnXfL6x5J01zT/GaMmWKrFq1ypp0PhT91dM089fJ2Zxel02ze6W/jprtdHL+Kq3L5tdT93ZO2pXApJvjqpqamnZN6J3rTL4i5cGZXzf3sZX7PaHybrbRyeTTrHfmXdNMOei85tu8z1m2zuOYbcz7nLyO6yXUuTn36VyO5jo482i2M5zvM/OhztXNK6+RjuW1b51X7vI3ZabC7Tca+h5nGebl5QX25TxHXXYe18ybdMO5nZaDMz86r2lOZn+J+htw0gBMY2Nj2GsVjxe277ZeTcDDBEZmnnastaw0IGK2S4Rwn3emjEx5ua9bqHVOus55H3jdw17XXOdVqM+ISNdS82PWOfPmdXz0bF0iWNLa2ip9+vSW4ccPkqHZmb4vQ31kwIDeMnhohr0FAKCr6NevnwwbNkxGjhxpPcM+GZPuW4/Rv39/+6joCkygZOPGjXL//ffbqaHpNrqtCZhoCxOvViPuViVe20TDfBHXpt6mubfzi76b/rqsTcO1SX1RUVHQtk1NTYEm9/qFX7sDmG21e4DXfnU70zxftzdf8vULvv7yq+k6abN+s2/dXpv4OznXmWb+kfLgzK+T17EN9zl65d3Z/WDy5MnWMc17vPJu5OTkBPalZWs4zyMcr+O6hTs3L1q50kqyc3t9Vc5ziVTW5r7RbXSdMsvOc3UKlddIx/IqR11W7vKP556NVrR/K+Gum9lOW3ZceOGFdqpY85rmZPanx+vo34AXzaf7PJz0WKZSHos3dn4uZ/jqQ4YGRla/9pEVQNHxSnTei45J8taufUGBlE03nBUYs8Q9FooyeQ/3eRfuuoVb5yXUPex1zXVe6b6d96gRz33v9fcLpE2w5PDhwyGn3r17S9ZZw2T8d8+SsbNOkawLRsrZ3z9XJlz9BRk4kIAJAHQVmZmZVhBDAyb62Z4sum89xtChQ61jHjlyxF6D7s6r1Yi7VYnXNtEwTdINnb/22mvtpfZKSkqsV61orF+/3vr13NBfapX5Am++mHttq8x2ppKlX/71C7+mZ2dnB41tEKto8mDy6xTp2O5zdOddaQUlnkrjPffcY72aPOsxdGpubg6khSuTSMeNdG5etEWBVuZC/YquTFmEK2tz35htTDk6z9UpVF6jOZZXOYYS6z0bi2j+VlS46+YsJ70Oho63YfIaSjTn5MxHNLQiHurzQSvwplIeCzNuiQY3NHCidIwS7ZLjHq9EmYDI9ZNHy2kVL9ipfs4xSx7Y/A87tU00n3fhrlu4dW6h7mEV62dEvPd9NH+/6HnSJljy5S9/Wb71rW95TqeffroMOeVY2faXJvn7shel9fPDcvjAIendV7PPF2AA6CoGDhxoz6XOoEGDpFevXvYS0pm7pUgk7pYoyb6/9BdIncwXd513VsrC0QpbIpgKlk5ev6imM3fetYKigROTpoGOVEjWcbVSpvtTen9oJQ+xC/W3Est1q66utiq9Ojkr/KmkFXE9l0TeB2bcEg2MaOBEaVccHbfEa7wSZ0AkVrF+3oX7jIv38y+VnxH8/cJL2gRLPv/8c5k4caJcfPHF7abzzjtPDn52QEbkj5ScGWNkz5ufyJsrX5e3//ym732t9h4AAOkuIyP1rQE745iInwmYRMvZZUe74Xg9XjjUFAv94qxf1M2XdueX91Bfqs2AiPqFX3819fp1W7+gK7MP3VYrJO5tzXbuXz01XfPQkV9Do82DW7THDpV3/aXXVH5MGXWEHkf3Yc4jVL6iOW64c9N08yu117XXX8e1sj5u3Dg7pU28ZR1OqLwm41gqGfuN5m8llvtFW4HoGBtmzI1IOnJOWrHW7b1o6wqt7CeK6UajLUU0cKI0TcctSeR4JVoOWtaRPu/CXbdorqkR6h6O5zOio/dnuL9f9DxpEyx56aWXRJtEffLJJ3ZKGw2iDP/HcGl5plkO7N4vvQ9mypzp35QT+58aZdPq2bLcjoqaaXnb33knceepTkpDt3wMLb9U6uJ9bxTyS+ukoV1h2Xn3TDd58S7z2cuD08xUF3QC7d8bvL4rcpZNGy2Prn9uQPSS2fUG3YcGP0wAxCvIoZNybpdsOu6B1y/UmuYcH8FJu5rov2Gm/3wopk+92VaXvWi685deM7ChPvrUmW4qCdr0XPdntgsn2jy4hTq2m1feTeVFlysrKwOVIhVL3p20nM15hBLuuE6hzk3HvzDHcF57XW+21feZLgXuc4m3rMMJldd4jxWp/BN9DtH8rUR73ZRWmHX8CZ1M5TmSRJ+T0mNrxdtN96/H0SlUUC+UP776YbvxR3SsklDjlcQj2s+7cNct2s8/w+sejvczIp5rGervFz1br4KCgiMtLS32YueZOXOm1VdMm0trtxt3g+m9+/bJK6+8LHv27JW8U06RWV/9qrz44ovy29/+1t4iHK2oFkvj3BmyJLrPyxjFs//g92hQombKOpk7Y4kkJYueIuRbAzGVIiXt8uR/X05ztjRVjZcFgUCtc3+RyiTc+kjv7YpCnVO+lPoLuRudKxCaDr4alZkVsrZkor0gsmPFIpm3zP+Ix7yFFTL1qcWy7MQKqZDFsni1lRxWOvw7h55Fv3DrF/RoK2qh6H70F13ETn9R1ooS5dczaSX6ySefjLpFQbrbOuM+ey45xtV9z56LTrjPuER9/gGdSb+zps1PfCeccIJcc801Vnec3/3uYXmk9hFZ8eiKwPSn1atk+zvb5cOPPpBNmzfJe++9Z7+ze6hfUiUbsqfIrDRqZJA/a4rIulUhgzfrqqolp7jUV91H/OplSVWTFF3n/Usc0CNZgRKRymnTZJo9mUCJSJ5MnSTS5FvMyxHZ/radDHRD+ktnuF/PEZ4ORkn59UwaKNNxMrpLoARA50ibYMnf/vY3q1+5NnsaOzZHWg+3puDpBfprf52UztauLP5mV9pVxOp6Yi+3dZFov61/naaXS6FkS1GNL315qZTWubr5zF4uDXWxBBX8x1q+XPOx3LfkY3W38R/X5NPPzpfZedB29nst2oLB+X53vp0ZVvnij5WEiQhvWSJVTUVSmbJuJO3LJahbT+Ac7DKJ6rr6eJSZ7jdsGZuVEa5L0DUM0HW+7c3GWxqlOWccQSfAkicLrzpBVixaLO0ajGgQZe1SmTN6opSsXStL50yUOUvXSsVMez3QTWhFT/9N0Wbk5okSiI4+ftT8m6zjFGjTfvQseg9oiyL+dgB0VFqNWfKLX/zCGsl+0aJFcsopeXL40OEEBkzsoID1D6iz8upLLxYp0YGLyjZIYXmDVEqJfyAj33J20XXe286tFimq9FWga2XB+DLZIM1SPdeXvmCJLKny7Wd627tmTy+UDVXhu9fklxZLYfM6aYtNZEtOo+ZjgdRq5bqmSJrK/IMr6bFzyh2V9wDdboqs03xY+RcptjbSQEmNTFnX9piyBbXufLsj73mSm90kWyO0nqtdUCZNVjnYCUFClXk0nO91BiGc5aLHt89Vz6Ww2JGPaK+rd5nVrnFcw9nTJadZZIrd7MdqcdOov3JHui7BefXTa1Euou8xZV6/VZqyc30lDkDypsok2SRPmYYkTqsXy7RFK2TzikUybVqlbN5cabU6iaYbDpBq+u9CvE3Q9X3+f9vi30dPpcERU3Y6oecx90B3+9vRbjLJnGIVroy7Y/mjZ0qbYIl+sH388cfy0EMPyYABA6xHBmdnj5XDhxLVwsQOClj/eDorr770EjuQUbvGCh4EWlNYyzkyLlD5dWxbv0SqNmRLrlcNV99XOD1QGZ+eUy13u2MRlraAQE1Rk5QFjQ3iyEf+OF8uNsgas49Qx7a2cwQZygslWzfKnyVTsjdIVVIGxaiVBWWhupGEKvNoON/rHBfFUS5KW+1YARVtJeMU5XUNVWaO1h6zp+fIuqp1Gi3xLTta3ES8Lq68+kyp9AetgmNTW6Sx2XmfAWgvTxY+tFbWLp0jE+cslbVrS2TixBLfa4XQsAQAAACJljbBEh1A5YwzzpD6+lfkvvvuk/79+8uCBQvklFNOSVGXnFjly7gce7adWrm7OsdqoaAtRnJCjvvRkWBCKBukzA4wWFO7FiNJUHu3VOeUO1p/pIh2gbEaaei5zpXquLsle5RZ/SpZJzqGjAa71smqWl3OlTwNPPnmXDGQKOnjzpr9wZgg0bXiAXqELU3yzuhJMtX9ZyJbZNm8abJoxWZZsWiaTKvcLJsrdTwTj+46AAAAQAelTbBE9endW3r36m0123rggQesJ+PMnz9fTjhhjNUlp/NlB7pimNYagVYFLvWrtCXCdXJdpHE/oqHdNKRQAj178kuluNDj2PZ2/q43Dlrxb/ZID8vd2kHH2fDq+qPqZUmJdkFxt+5IsrxcyW5u9OXUx7oeVmpsQpWZ75ysS1hpgl26nCPTr8ttG/Q22usS0CzrSmZImZS7xkwZJznmPIAeb7VUrxCZc8tCR9e0mbJwoS7lydQx260uOjMLRDYSJQEAAECSpFWwRH/V/+pXZ8lll14qhw4dkl/96lfSu3dvKS4ultzcE6WXL7tf/MK5MmvmLBk5cqT9rmgFj4ERVFmNWrM05Vb692GNVWFag9TKmg32/k3zCu2S0VQohU1VCXgkbK0ssMbDsPNvjbHh1RLFv50vI4Hz9OenXpbM0LFF2tL92fTId4AdLIj28Ty+8y1p17QjEWUehrZokSKp0f1X5kpTXC1LQpWZ75S0ALLbgl26nFOY4wh+RXtdgtUumCvrpviOZwb91aBP01Z/AAaAbFk2TxZtmiRL166VtdZUIE3W03C2yLLFy6zA4urFtCgBAABA8vQqKCg40tLSYi92nuzsbBk6dKi9JPLRRx/J9u3b5bjjjrMCIzqeiXO5V69e8v7778u7775rvyPZtGVFsTTOnRF18EOfqDJ9jXO8jWTQfE2XNQnrxuOg3VwqRUqCxlJBYumAr1YhJyCoBqS/UaNGWZ/fqZYO/84BAACga9BhQtKmZYk+B//FF18MTNu2bZPW1lZ57733rCfluJd1Gw2UaFpa0i4ZIQd2TaDZ06UwWV04tLXIuilS067VCRJl9vIaKUpI6yOga9BWg6l2+HA6dOMEAABAV5JW3XDiod100ou2FLC7ZJinsSSDtvrQrh/lOW1PfUmC+iUzUjNIbA9lPfqY8kUPsnfvXnsudXbv3m3PAQAAANFJm244AICeITMzUwYPHix9+vSxU5JDW5Ts2bPHmgAAAIBoaTccgiUAAAAAAAA2giUAAAAx6NevnwwZMkQyMjKS1hVYx2PT8X20C9n+/fvt1OikIn/phLJqr6eVSUfOFwBCSasBXgEAANKZdiEbNmyYVaFMZkVS963H0KcE6jGPHDlirwkvVflLJ5RVez2tTOI9XwCIhGAJAABAFAYOHGjPpc6gQYOiftx2Z+QvnVBW7fW0MonlfAEgEoIlAAAAUdCuCakWyzE7I3/phLJqr6eVSU//GwCQWARLAAAAopDuXRO6W3eSZKKs2qNMACAYn4oAAAAJNHPmTFm7dm1gWrhwob1GrPm8vDxrG51SqaKiot0xNX+aH0PXP/TQQ9a8rouHe59dlbl+ZtLyi1eoMgmVnq688qtpRlc7HwAIh2AJAABAgmiwoaSkRKZNmxaYli1bZq8VmTRpkmzZskVycnLk7bfftlNTY+PGjVJQUGAv+fO6Y8cOmTp1qp0iVr42bdpkzWvee7pFixYFruMJJ5zQoYBJd8V9AqC7IlgCAACQIFdddZVVwXbTwIT+6j569Gjrdc6cObJ06dJ2LT2SSYMzWuE3NHCigREN4Bg6/9RTT1nzzlYCOq+tYvTVzDuZdK9gglmnk9mfbufch3OdlonZj/OYnW3evHkyceLEoJYTJm/O846UZ00394PS+8BdFmZyH8u571TeO+G486nBN6886rKWk2m5pK9mO/f5m+10MvvQV/NeAEgFgiUAAAAJYCqM2nLEbfXq1VYQZcWKFdYv8Zs3b7ZeNT1VTL5MPjVw4mz1Ei7/asyYMVaeKysrrWCPoRVbc17aesXJuU7fd8stt1jp27dvt/antBLsbOGiQRxdr/Q4+l6d0oHm88QTT7Tm9dz0nDRvWpam/MLlWSv7eh/odTfrddlch1DlZTivgbZgSkfh8qjXVYNOSl91O52c95My22kwz7SGcrZ6AoBUIFgCAACQZFpJ1hYEWinUX861hYK+pppWNjUooRX7d955x0rTVw1YaBAgXGW0urraejUBHhMc0HMxrVHcwR/3Om1Zo+/TNF2ntDL829/+NtDCRQMP5j0anNAAQjrS/GswQK+jnpcJooTKswY+9DxDBaNUqPIyQl2DdBIuj+bclN5zWnbm78BrO301raGcrZ4AIBUIlgAAACSAVoLdlVtDfyXXFgPaikB/cTctElJNK5ta6dSAiWkFYsYy0ampqclKSzYtKw0qaFlpZdhdsTYBBS03bWXQGYElN82bXl+TV6XX07SOMOnh8qytI+APlGiXNVN2oZj7QLdX4QJNAJBoBEsAAAASRAMi7q4TZjwG7Z6glT0NSjgr3KlkKpsaMDF50FcNWGirhnjy5exCYyq1hnY3cq7TbU0etBWLlpVpzaKvRUVF7Vq3aBcVE1jpTNoySK+v4TxvN68833rrrdY94Byfwy1ceSmzTvfhXpcuos2jadnkvmfc9H7Qvxn3fQEAyUawBAAAIEG0kqyVOtO9QCczHsXixYuDXjuLV6VTK65aUY+HBgFM9yKt1DrpuZp12mVFtzW0FYu21DCtWfRVAzbO1i2mDDV/nREY0ACJyYO2BjLXUjnPWyfDLHvlWctDA1Wmm46WuXOA13DlpTTYout0G/e6VDFlEqp7VDR51KCcXmvdzn3PuJn7gi44AFKtl+8D6khLS4u9CAAAAC+jRo2SXr162UupE+33tM7KXzrpzmWlgQXt9hNr0Kirl4kGkjTApN2bokG9BkAiZGVl0bIEAAAgGocOHbLnUufw4cP2XGSdkb90Qlm119XLRAdGjqUVTSznCwCR0LIEAAAgCpmZmXL00UfbS6nxySefyN69e+2l8Dojf+mEsmqvp5VJLOcLAOHQsgQAACBKWgn7+OOPU/LrtR7j008/janil8r8pRPKqr2eVibxnC8ARELLEgAAAAAAABstSwAAAAAAAFwIlgAAAAAAADgQLAEAAAAAAHAgWAIAAAAAAOBAsAQAAAAAAMCBYAkAAAAAAIBDl3l0cMagIXJEDsvBz3ZLRt8M6TdglHy+5117LQAgHfTr10+GDBkiGRkZ0rt358XjW1tb5dChQ7J7927Zv3+/nQoAAABEllaPDj58+LDnpDIG9pOvjrhAph19nvQZ0FdGDxwnt3ypWDIyj5FevaxNAACdLDMzU4YNG2YFTDozUKL0+JqPoUOHWvk6cuSIvQYAAACILG1alnzpS1+Sk046yV5q8/rrr8sX9p8pp580XvSr7u+f+71cdOZ0OWrQUdL8zna5s+H/k0N7PvZvDADoNCZQkm60hcnOnTvtJQAAACA8bVnSZ+zYsf+pzZQ7m/7yN3PmTDnrrLNk3LhxgengwYPyu02/k9ZPjsir7zTI3/e9JM81vSn5R42T/3nhHmn9/FN7DwCAznTUUUdJrzRs7qetTNLh3zkAAAB0DdqtPG264bz55pvy85//XNytXM4//3zJO+U0+dP21fL0e+vla1+7RHa3vivlz94qRw5G++V3tixvaJAGx7R8tr2q07jzVCel+faqWOSXSl287wWABOrsrjcAAABAoqRNNxxtVbJlyxbrV8kvnntu0K+TOnaJDtan+vTpYy2f/YUvyEsvvSQ1NTVWengamCiWxrkzZEm9nZRQ8ew/+D35pXVSM2WdzJ2xRJKSRU/JLhcAPYk2V4zKzApZWzLRXhDZsWKRzFu2xV5Kjq4wkDkAAADSQ1oN8HrCCSfINddcY/0y+fDvfieP1D4iKx5dYU2PrXxMVv5hpTU9+vij1uuuXbuswEl3Ub+kSjZkT5FZtBAB0J1ZgRKRymnTZJo9JTtQAgAAAMQqbYIlGzdutFqPzJs3T3JycuTwodYUPL1AW1bUSels7crS1j1HW3mY7jF1gf4t7bf1r9P0cimUbCmq8aUvL5XSOlc3n9nLpaGuVKKPg/iPtXy55mO5b8nH6m7jP67Jp5+dL7PzoO3s91ryrXy1vd+db2eGASAZ8mThVSfIikWLZbWd4mlmhVTMtOe9RFoPAAAAdFBajVly7733Wt1vFi1aJHl5eXLo4OEEBkzsoEC7IIIvvVikZPx4GV+2QQrLG6RSSmS8vZxddJ33tnOrRYoqpTS/VhaML5MN0izVc33pC5bIkirffqa3vWv29ELZUBW+e01+abEUNq+TVYGNsiWnUfOxQGo1IFJTJE1lvv3bx84p9xqnRLebIus0H1b+RYqtjTRQUiNT1s31p/umBbXufNf6dwEAyZI3VSbJJnmKhiQAAABIc2kTLNExS/bv3y8PPPCAFTD51re+JWPHjpXDhxIVMLGDAlawQAMQhi+9xA5k1K6xggfrTMTCWs6RcYGghGPb+iVStSFbcvOsFcH0fYXT7SDLbJmeUy13e8Yi2gI4NUVNUhY0XokjH/njfLnYIGvMPkId29rOERQqL5Rs3Sh/lkzJ3iBVDEwCII3lLXxI1q5da41nMrHE9+qbf2hh2wddpPUAAABAoqRNsEQHUDnjjDOksfFtWbp0qTWI64IFC+SUU/JS1CUnVvkyLseebadW7q7OsVp1aIuRnHWrQrQqCRXA6YgNUma3HrEmWowASBdbmuSd0ZNkaoj4xpZl8/zjmFRuls2V7cczibQeSKZtk/8nqRMAAEgvaRMsUX169/ZNfaSxsdFqYZKRkSHz58+XMWPGJLhLTryyZYoZgdVurRFo7eFSv2qdyJTr5Lop0tZCJF71W6VJCiXQsye/VIoLPY5tb+fveuNQv0rWNXukA0BKrZbqFSJzblkobfGSmbKQ1iGIg3lKXiiJfpT1wYHDkjoBAID0klbBEm0J8dWvzpLLLr3UCpTcf//9cvDgQSkuLpYTTzxRevfqI1/8wrkya+YsGTlypP2uaDnHLHEO3BqLZmnKrfTvwxpDxLQGqZU1G+z9m4FStatMU6EUNlUl4LG8tbLAGqfEzr81LolXSxT/dr6MBM7Tn596WTKjTJoc6f5seuQbAJJIW4cs2jRJlmp3GmsqkCZ365DVi2VxuBFgI61Ht2Z+OIkUDIkUTAEAAAinV0FBwZGWlhZ7sfNkZ2fL0KFD7SWRjz76SJqbm2X48OFWF51PPvlEtm/fLscdd5wVKNFxTd5//31599137Xckmz49plga586IOvgxe3mDTF+jg6naCUmh+ZouaxLWjQcA4jNq1CjrszkdpcO/c+g4DZSYe2zYsGFy2WWXyTnnnCOZmZlW2s6dO+Wmm26y5r/0b+fKhEltP4zcP+dB6/XqFd+x5s1rtLbOuM+eS45xdd+z5wAAQGfTGETatCzRwMiLL74YmLZt22Z9KdIvPi+//LK1rL8Svffee/LSSy9Z22igJG1/OdKuMiEHdk2g2dOlsLlR6LUPoLMdOnTInksvOgYWugcTKNEfWMrLy6WgoCAQKFF/+9vfrFcTKNnx2g55duWz8som/68cGiDxeo3GyuLTZf7E4FatB+74ipwzZrC9JNZ63U7pOufk3M697vZLc+01bbQVaH5+cCtYr7REqaurC7Q+1fnOFOo8vdJ12Zke6r0AAMQqrbrhxCPRfZI7Th/T6/uyoV1lzJNzkiG/VOp8XwgaynPantADAJ1o79699lx62b17tz2Hrsz8OKItSm6++eagIInx97//3XrVQMnunZ9JXdkaefWXr8tzP33eSjctSdyv0Xj85V1y2RnD7SUJBD++8YUR1qsaPypT3ni/7e9g0p0vSr8b/0/uWr9DfvXt4LF5zDqdblrZaKemngk2VFVVBQaHLykpkdmzO9Y9N1VBi/r6eivP+goAQCJ1+WBJ6tTKgvHRdMHR8UH0y0b03XXiUr9EZlhfapJ8HACIkgZLtMtkurTk0Hx8+umnaRvEQWzMjyPa9cYrUOL2ya5P7bk2HWlZ8vK7e+SUEQPsJX+QRIMgpxzXlpevnj5UHv7bTnupjQZDTho+MKh1SbqorKyUsrIyqa1tawqrgQfnMgAAPRHBEgBAwmhgQseT0jFCOnvSfOzZs8fOGboLHaMkGkcPP8qea9ORliUvbPe3UDIBDxMYmXnasday0oCI2S7ZnN1mTCsQ00rETIbOL1u2LChN6fbapSlcYMS9T2eLE10uLS0NrNN5k65qamqs4ypNc+Yh3H5jpe93tmLJy8sL7NfkSemyMw9m3qQbzu20nJ150/nO7qYEAEgNgiUAACCtOQcODteq5Oyzz7ZedaySwSOGyIzy6XL6t0+1Xo14AiXGGzs/lzOOH2Qv+QMoq1/7yAqg6HglOu9FxyR5a9e+oEDKphvOCoxZ4h4LJRKtsDc2Nga6zZhghwYn5s6da6VpaxFnoKCpqclKd9Mx48LRfeq+9L26bx0rxhmYyMnJCRyvqKjISjPH0e0XLlxozStnHiLttyP0KYpmv5on536dedC86bxOkydP9txOuyddeOGFdqpY85oGAOj+CJYAAIBuQQd81TFNdKwSDZiMPm20nHfpedZrOOZxxJGYcUs0uKGBE6VjlGiXHPd4JcoERK6fPFpOq3jBTvVzjlnywOZ/2KnR2bJli1W5dwZDTEVfgxDaIkKDDxrIMFatWmXPBdOWJaGYfZpgjHbPWb9+vdVyw7jnnnusV7NNuICHyUM0++0IHXNFee3XWQ4adDItS9zMdppHLWsjNzc3kG8AQPdGsAQAAKQ1ZzAj3Bg02urkBz/4gQwcONAKmGjrETMZui/3FO0jr824JRoY0cCJ0q44Om6J13glzoBIrNwtPkyAQQMAOpnWEVrRd3YTMS0ldHK26vCi+9HjON/f3Whww4uWpwaUTFmFa2FTXV1tBaZ0WrdunZ0KAOjuCJYAAIAu44UXgltouI0dO1Z++tOfWgPBatDETQMj7ilaphuNthTRwInSNB23JNHjlWg3Gx181bj22mutVhJOS5YssSry48aNswIfytnaJBrapUSDBs6AiQYSdNns06zTdG1l0dGWFcnarzFr1izrVfcbakwWbW1iAiRmu1C0lcmUKVOsKVQLHQBA90OwBAAAdBmPP/54xCccaQuTiy66KKqn5sTqj69+2G78ER2rJNR4JfEyrUJMNxFtIWHSNMhg0nVMDg2aKDNGh1nnHLQ0FA0kmDFDzPs0SGMCDM51ZkyUaGhgR7cPlYd492u6GekUKjCk3Y/MfnVcFC/m/HQ7Pd9wLUs0uKPBK51MoAcA0P31KigoOKJPDQAAAEhX2gJEu8wobQVw8803hwyGaDDltttuC1SAne+N19YZ99lzyTGu7nv2HNKRBn2efPLJhLV+AQCkt6ysLFqWAACA9GfGF1EaBNEWAxs3bgxqZaLzmqbrTKDE+T4gHtpNh4FdAaDnoWUJAABABLQs6Znq6uqslkzaTYguOADQc2jLEoIlAAAAAAAANoIlAAAgrT34YNtjf520u839999vLwW7+uqrxff9xl4K9p3vfMeeAwAA8MaYJQAAoEvSYIgGRdzCBUoAAACiRcsSAACQtkK1LDGcLUyiCZTQsgRAKm2b/D/2XHKMXf8jew5AItENBwAApLVIwRKlARMVTYsSgiUAUonBoYGuiW44AACgy9MgSTSBEgAAgGgRLAEAAAAAAHAgWAIAANKWdpsJNy1cuFC2bdtmb50ay5Yts6Zky8/Pl4aGBus10WbPnm3tu66uzk5JX8ksB7QJVcYm3X0dOuuaJOPe1f15/U27z9c5aT70Pe50nUpLS633qJXFp8v8iSPtJb8Dd3xFzhkz2F4Sa71up3Sdc3Ju5153+6W59pr2Ev05pefldR90RCL3BSQDwRIAANBl7du3T2677baUBUz0S31ubq41JfsLfn19vYwfP956jUe4Skh5ebmUlZXJjBkz7JT04sx7R8uhJ0lmxTNdrkOy7l39m9YASDhz5861ykCn2tpaK1hrlp3rlyxZYi2rx1/eJZedMdxekkDw4xtfGGG9qvGjMuWN9/faSyKT7nxR+t34f3LX+h3yq2/n2al+Zp1ON61stFODJfNzqqP3AX/b6EoIlgAAgLSiT7UxjwXWAV69JmW2S2XAZNasWbJu3Tpr0vmubMuWLfYc0LUk496tqqqS4uJieylxXn53j5wyYoC95A+SaBDklOMy7RSRr54+VB7+2057qY0GQ04aPjCodUk0utPnFNCZCJYAAIC0Ec3jf510W2fAJNmmTJkiq1atsiadD0V/PTXdBXRyNsvXZdN8X+mvrGY7nZy/buuy+RXWvZ2Tdkkw6ea4qqampl1TfOc6k69IeXDm1819bOV+T6i8m210Mvk065151zRTDjqv+Tbvc5at8zhmG/M+J6/jurnf61z2OmfnsXUydN4cz0s0+3JfD6/z13nlLjfnscPtNxr6HmeZ5OXlBfblvA667DyumTfphnM7LQdnfnRe05zM/hJ17zppAKaxsTHoPBLhhe27rVcT8DCBkZmnHWstKw2ImO0SIdznlCkjU17u6xZqnZOuc94HXvew1zXXeRXqbzvStdT8mHXOvHkdH0gEgiUAACAtmECJPgr4/vvvt1ND0210W2fAJJnMF3ptMm6ajTsrDG76K7U2Mdem+UVFRUHbNjU1BZrua8VBuxWYbbWbgdd+dTvTzF+3N5UFrSjoL8iarpN2DzD71u21q4CTc53pLhApD878Onkd23Cfo1fend0YJk+ebB3TvMcr70ZOTk5gX1q2hvM8wvE6brS0MqaVavN+c86hzlHFWn6RrofX+Zv9u8stnnstWtHe4+HK22ynLTsuvPBCO1WseU1zMvvT43X03vWi+XSfh5Mey1TKY/HGzs/ljOMH2Uv+AMrq1z6yAig6XonOe9ExSd7atS8okLLphrMCY5a4x0JRJu/hPqfCXbdw67yEuoe9rrnOK9238x414rnvQ/09AolAsAQAACAKpmm7ofPXXnutvdReSUmJ9aoVlvXr11u/whv6i68yFQHzBd9rW2W2M5U1rURoxUHTs7Ozg8ZIiFU0eTD5dYp0bPc5uvOutKITT+XznnvusV5NnvUYOjU3NwfSwpVJvMdV2gJBK3/OYEi4c1SxlJ/ZV7jr4XX+ocR6r8UimntchStvs53mS8vV0PE2TF5DieacvMo+HK2Ih/q71gq8qZTHwoxbosENDZwoHaNEu+S4xytRJiBy/eTRclrFC3aqn3PMkgc2/8NObRPN51S46xZunVuoe1jF+jcW733v9fcIJArBEgAAkBbcLUUicbdEGThwoL0mOfSXTJ1MBUDnnZW7cLTilwimoqaT1y+z6cydd63oaFDBpGmgIxU6elytxOn7lN4HWik0zD516mrXp6NC3eOxlHd1dbVV6dXJWeFPJa2I67k4r2tHmXFLNDCigROlXXF03BKv8UqcAZFYxfo5Fe6zKd7PrVT+bYf7ewQ6imAJAABIGyZgEi1noOTmm2+2UxNPv4DrF37z5d9ZCQj15dwMrKgVB/311etXcv2ir8w+dFut2Li3Ndu5fz3VdM1DR35VjTYPbtEeO1Te9RdjU4kyZdQRehzdhzmPUPmK9ri6jflV2+sa66/pWrkfN25cyHMMJ1T5mX3Fej0iScZ+o7nHY7nO2gpEx9gwY25E0pFz0oq1bu9FW1doZT9RTDcabSmigROlaTpuSSLHK9Fy0LKO9DkV7rpFc02NUPdwPH/bHb0/nX+PQKIQLAEAAGlFgx86qe985zuek3Jup+OV/PjHP/bc1jnFS8dP8PqlW9Oc4yw4aTcMrZCZfvihmL75Zltd9qLpzl+MzQCJ+ghVZ7qpbGgTdt2f2S6caPPgFurYbl55N5UgXa6srAxUrlQseXfScjbnEUq44zrpeBlmX85rrOeoaTrpOZkuCKGuTzihyi/e6xGp3OLdbyjR3OPRlrfSCrOOP6GTqTxHkuhzUnpsrXi76f71ODrFEhhTf3z1w3bjj+hYJaHGK4lHtJ9T4a5btJ9bhtc9HO/fdjzXMtTfI5AIvQoKCo60tLTYi53vyJEj0qtXLxk9erT16nT48GHRvOprnz597FQAQLro16+fDBkyRDIyMqR3786Lx7e2tsqhQ4dk9+7dsn//fjsVSB394q5f9KOt8IWi+9FfhhE7/WVaK1yUX9eilegnn3wy6hYF6W7rjPvsueQYV/c9ey464T6bEvW5BXQHWVlZ6duyZMGCBXLTTTdZ/T110nn9RYggCQCkp8zMTBk2bJgVMOnMQInS42s+hg4dauVLA/FAV6O/mIb7FR7h6aCWlF/XogEuHSejuwRKAHRtaRcsMa1JtOmjzv/kJz+R//qv/7J+IdRIM61KACA9JXtwzXgNGjSoXUtFIJ1phVF/4dXm6ObJFIiOPsZUy04nHe9Auwiga9Brpy2BuOcBpIu064Zj6EBA+mGpk37JraiosIImn376Kb8QAkAaGjlyZKe3KAklHf+dAwAAQHpK6244Xl+4Ne3gwYP2UhzyS6XO/rXBmupKJfRT6TtqtixvqJPSKA8we7kjX46pLtodAEAnS9dACQAAABCrtP1m+4UvfMEaXEiDI9oF55133pHzzjvP6oMeFw2U1EyRdXPbHqNV1pQr/gfCdb7aBSZfZbJBmqXazueMJdEOsBRbcAYAOs3MClm7dm1gemhhunwSAwAAAH5pFyzRLjfnnnuunHbaafL4449bXW50nJLHHnvMCpaccMIJ9paxyJfSyiJpKpshzthD7YIFwvBRAJBCGigpEamcNk2m2dO8ZVvslQAAAEB6SLtgyXHHHSdXXHGFPPPMM7Jz5047VazRzJ977jn5+te/Lsccc0xs45bkz5Ip2RtkTbjIiKuLznL/Y+79olxXV1oaunVH0D6Wi3MXYXm+L19K60ya5kdblZRLoWRLUY0vLSiDAJAu8mThVSfIikWLZbWd4mlmhVTMtOe9RFoPAAAAdFDaBEtaW1ulb9++cvHFF0tjY6O8/PLLMnjwYBkyZIg16dMMXnjhBRkwYIBcdNFFkpGREVvApLlRzG+X+aVmpHQT2Jgty2u05YndFWZuteSUx76uRKZIoSa3o9s5ugCViRRH1V8mxPtmXydFTWX+NN+0oLZWFji77yygvQyANJQ3VSbJJnmKhiQAAABIc2kRLNGuNxr8OPPMM+X888+3pp/+9Kfy//7f/wuabrvtNjnppJPkK1/5iowdO9Z6X9QBk+y28Unql8wQ/9ggtvxxkuNbCrQ8qV8iVRuyJVffEGldc7Xcba+rX1LVtk8nax92qw8N0pQX+rITRR/9UO/b0ijNheUM/gqgW8lb+JB/HJOSiTKxpP14JpHWAwAAAImSFsESDXho95u5c+dK//797dTQtKVJUVGR1R0nKvVbpUlyZFynxhY2SJndEsSaom794fG++iUywzdfIpV2Nxx7UwBIZ1ua5J3Rk2RqiPjGlmXz/OOYVG6WzZXtxzOJtB4AAABIlLQIlmirklmzZlkBk2hoixJtWaJddqJ7VGWt3F0tUlQTYqwQK5hSKNPNyvxSKS60W5NEWpddJNfZ6/JLi7274dj7iK7rjUOE92kLmbnVzZLTuVEgAIjSaqleITLnloWOJ5HNlIW0DgEAAECaSYtgiY5VMnToUHspetqyRAMt0bC63pSJlFtjlehULjnVJfbTcWplgTUWib3OGifEPCknwrqyDVJor6uUdd7dcOx9SFGNfWzfFFVzkBDvm708sFxT1CRV1knUypoNDPAKIL1p65BFmybJUu1OY00F0uRuHbJ6sSwONwJspPUAAABAB/UqKCg40tLSYi92Dm0p8s///M8yffp0OyU6jz76qPzhD3+IbaDXZNIn19TkStV4HkkMoOcZNWqU9Xmejjr73zl0H/369bO6A+uPNdG1bo2dDnp/6NAh2b17t+zfv99OjU4q8pdOKKv2elqZdOR8ASCUrKws6TN27Nj/1A+XzqaPBtan3xw+fFg+/fRT+eSTT0JOH3zwgfztb3+zAiW6fbqY/V9Vcnmvp2X5r/4i79tpANBT6NPK+vTpYy+lD/13Ys+ePfYSEL/MzEw59thjrfs8mYFB3bceY+DAgVZF8MCBA1EdL1X5SyeUVXs9rUziPV8ACEcDx2nRskRbhuiHmnbH0Q/qSHRbDfAcPHiwkz8M86W0rkaKsu1FazBWWpUA6Jn08/voo4+2l9KHBtn37t1rLwHxGzZsmPXLeyrpL+Y7d+60l8LrjPylE8qqvZ5WJrGcLwCEoy1L0iJYAgDoHjRgoq0E9Ve+zmZalNCqBIkycuTITumaEO33tM7KXzqhrNrraWVCvQZAIhAsAQAAiJJ+ceoM0X5P66z8pRPKqr2eVibUawAkgn4m9uyfHwAAABJs5syZ9tOe/NPChQvtNWLN5+XlWdvolEoVFRXtjqn50/wYuv6hhx6y5nVdPNz77KrM9TOTll+8QpVJqPR05ZVfTTO62vkAQDgESwAAABJEgw0lJSUybdq0wLRs2TJ7rcikSZNky5YtkpOTI2+//badmhobN26UgoICe8mf1x07dsjUqVPtFLHytWnTJmte897TLVq0KHAdTzjhhA4FTLor7hMA3RXBEgAAgAS56qqrrAq2mwYm9Ff30aNHW69z5syRpUuXtmvpkUwanNEKv6GBEw2MaADH0PmnnnrKmne2EtB5bRWjr2beyaR7BRPMOp3M/nQ75z6c67RMzH6cx+xs8+bNk4kTJwa1nDB5c553pDxrurkflN4H7rIwk/tYzn2n8t4Jx51PDb555VGXtZxMyyV9Ndu5z99sp5PZh76a9wJAKhAsAQAASABTYdSWI26rV6/+/9u7FyAryzvP4/9u7o2K3ITm0jRIbKPETXQSQkxjEN0CdaJVENTaGtoth1Ewk5nN9hYjhtrZJZKh0snUViXghLFWzFaREKhKdiVgIhJCIkEnjkFEW7l0mksLyEVoQKCb3vN7z/s0T799zunTl3Pp7u+n6qn38ryX533ew+X5n+d5ThBEWb9+ffBN/M6dO4Ol9meLK5crpwInfq+XVOWX8ePHB2WuqqoKgj2OGrbuudR7xefn6bxnnnkm2H/w4MHgeqJGsN/DRUEc5Yvuo3OV8oHKOWnSpGBdz6ZnUtlUl67+UpVZjX19DvTeXb623XtIVl+O/w7UgykfpSqj3quCTqKljlPyP0/ijlMwz/WG8ns9AUA2ECwBAADIMDWS1YNAjUJ9c64eClpmmxqbCkqoYX/o0KFgn5YKWCgIkKoxumbNmmDpAjwuOKBncb1RosGfaJ561ug87VOeqDG8du3a5h4uCjy4cxScUAAhH6n8CgboPeq5XBAlWZkV+NBzJgtGSbL6cpK9g3ySqozu2USfOdWd+3OQ6DgtXW8ov9cTAGQDwRIAAIAuoEZwtHHr6Fty9RhQLwJ94+56JGSbGptqdCpg4nqBuLlMlGpqaoJ9maa6UlBBdaXGcLRh7QIKqjf1MshFYClKZdP7dWUVvU/XO8LtT1Vm9Y5APFCiIWuu7pJxnwMdL6kCTQDQ1QiWAAAAdBEFRKJDJ9x8DBqeoMaeghJ+gzubXGNTARNXBi0VsFCvho6Uyx9C4xq1joYb+Xk61pVBvVhUV643i5YVFRWterdoiIoLrOSSegbp/Tr+c0clKvOzzz4bfAb8+TmiUtWXuDxdI5qXL9Ito+vZFP3MROnzoD8z0c8FAGQawRIAAIAuokayGnVueIGSm49iyZIlLZa5kqjRqYarGuodoSCAG16kRq1Pz+ryNGRFxzrqxaKeGq43i5YK2Pi9W1wdqny5CAwoQOLKoN5A7l2K/9xKjttOVGbVhwJVbpiO6tyf4DVVfYmCLcrTMdG8bHF1kmx4VDplVFBO71rHRT8zUe5zwRAcANlWEPsLqqmuri7cBAAAQCKjR4+2goKCcCt70v1/Wq7Kl096cl0psKBhP+0NGnX3OlEgSQEmDW9KB+0aAF2huLiYniUAAADpaGhoCNeyp7GxMVxrWy7Kl0+oq9a6e51oYuT29KJpz/MCQFvoWQIAAJCGoqIiGzJkSLiVHR9//LGdP38+3EotF+XLJ9RVa72tTtrzvACQCj1LAAAA0qRG2OnTp7Py7bXucebMmXY1/LJZvnxCXbXW2+qkI88LAG2hZwkAAAAAAECIniUAAAAAAAARBEsAAAAAAAA8BEsAAAAAAAA8BEsAAAAAAAA8BEsAAAAAAAA8BEsAAAAAAAA8BEsAAAAAAAA8BEsAAAAAAAA8BEsAAAAAAAA8BEsAAAAAAAA8BEsAAAAAAAA8BeXl5U11dXXhZn66cuWK9evX14aOGmRX+jbZ2SMXrU9s2beo0OpPNoRHAQC6g/79+9u1115rffv2tcLCzMTs9e9GQ0OD1dfX28WLF8O9AAAAQNuKi4utz4QJE/5R/5nMtcbGRmtqakqY+vTpY8W3D7ebHr7VisZdZ32uK7CbHrzZRt1ebCf+/WjsP8RXwqsAAPJZUVGRDR06NPh7vaCgINzb9XRt3WPQoEFB4OTSpUsZvR8AAAB6Dn2xlzc9S774xS/axIkTw62Wdu3aZVduu2znj52zP285bOO+PMrG3DHW+g3ub2/+8xt24UJjeCQAIJ8NHz486FmSTephcvz48XALAAAASE09S/ImWLJgwQK78847w62Wtm/fbtuObrHrbxxmH1Uft4//Pfaf3kGFNnDEIKv7txPhUQCAfDdq1KiMDb1JJd+HmwIAACB/KFjSLSZ4nTp1qo04OsLqXqu1S/UXrfBykc299z/ZpAE3h0eka4ot3rzH9uwJ0+bFsT3ZNMee27PZFnfgpnOei5X3uTnhVtebsnhzguurvInu6z9HeIyXdHhQ3sh+pc0tHr71uS3zu6PE71j10f2fDei8XARKAAAAgPbKq54lQ4YMsf1794Z7Wrrc2Bh0pZbCggIrnz7d/vSnP9natWuDfW2astg2r6uwmqW32JMbru5bXLbCVrjtjFNDeoEdmDfLVuwOd6VDZa+aaDVWagcq23luOoLrm1XOWmEtLx0vb2ltidWs9uqtxXO09Uyp8jtYH3kt2TMpUBdUcg96VqD9FKVPy+zltqVyarhhdnj9Ipu/qjpYL1u43O5+dYmtmrTcltsSW7Ip2J0SPUvQWX++6zvhWmZM2PZ0uAYAAHIt73qWTJkyxb760EMJ05w5c+zhhx8O0tfmzbPRo0eHZ6Uj1lCtigRKZHc2AyUdN+X+GWZbf2A/2Go24/6u750Qv/7GSKDkqq2r11jpgmz3wulpdtuK1TVW8fXM9Q4CeowgUGJWNXOmzQyTC5SYldnd08xqYptlpWYH94e7AY8m9e3qXkyXBw3PaAIAAPkl7/pDX7hwwf7vz39uv9q82fbt3Wu73347WHbKlPttRslv7depAiPqXeENB7k68kQ9BTbb4sXPJRgq0nJYT/M5Sa8V0eK452J3SmSKxWMZu233xiBa4gUtwrLNuXqdq2VLlee7ev2kqlfY6poKq8raMJJ42Z97bnNzvbQY1tNcoa2fUVnBkKJwu8UzJ6hvXbfVu3an6HiX2cbnwy/rVcqLHe8Orj5gtaWTCToBKZXZwkfH2fpFS6xVhxEFUbastLljp1rlli22cu5Um7tyiy2fHeYDIQVKFDABAADoqLwLlpw7d87Gl5TYV+6+23bvftuGDhtm7777bpjbCbUHzH0v2VqsURsO0bnllliat8ZKl3mNZiuxiom/juct/a2VVHw93iie83WrqFka3x9L8V4rbV3L0XEzbOu88LilZgsSBSMU6LGtFsQydm+Mrc2wlp1LYmVbYFYZ3ssqqlqWO2meU2YTS2psbxtDQzY8udRqEp4vsfusaxmESJ9/rh+EKLHSA5WxunnSVK0bngzrKVZRv52+IPEzxt7N9GV7rMp0Xny7+V0lqe8Nv46dc2940zn3Wmnt1d47QY+bA/rUtP358Msap0DaMjOd47oz7d5rNSUTYzUOIKmyu22a7bBXE/2FvWmJzVy03nauX2QzZ1bZzp1VQa+TdIbhoHcZfE1f+8J//Qt7fP1jzclx6/4+AACAqLwLlowYMSKYm2THa6/Z7Nn32ciRI4NfT+i0VI3UKZOt1LyeJ7tX2OrfltjE5hNqbc0PwswNv44dWWqT1VBWT4HpyyK9F9q6Vig4zgsULJseK2LrErYcIrPb1Lmk5VCOWNkqw7lGEpU7aV57bbAnlyYbRhK7jwtCtAgYpMM/1x8mVduyt8sc17NnmU0Pd8V5zxi8G+88/10lq2+vt8ece0tt62rXe8frcZPG5yPaM2dG1TqbsXVey2FfVm0HasPyAGinMlv44hbbsnKuTZ270rZsqbSpUytjy+VGxxJE3frEZ+0z06bY4XcP2x9+8Qd7e0f87+hooKQ9AZNfLLjV/vPUlv8fufT9L9sd468JtyzI13GiPD/5x0XzvvvgxDCntVWrVgUpUxYvXpzw+vq3Mtl+DZt2637SkGmdE92vpPv42srvjvQcrm4c1UdPeDYA6I3yLlgin//CF+yur3zF+g8YYP379w+2O0U9Mmqnm+tA0GVijeZZsQZ+pVUF/0Be7RWRrt/a0jBIEKSWLeuYOfb1ihIrqVjX/J+JdbFtm35vkt4bU2xyabjaSqq8NG34ga0pXdaB5+wkDYEJOmmonubZmtpwf7slqO/m3jpz7N7SrbZxg7YnWpnfo6fdYu/IahMEv9LrxQP0atU1dmjsNLu7VWC32lbNn2mL1u+09Ytm2syqnbazSvOZJBiug15PgZL642dt89Jf2zs/fs9e/96/Bfufn/tCwmU6fr7rI3vothHhljUHPx65fWSwlFtGF9n7x86HW2bT/vkt6//N39n/2nbY/s9ftfxQuzyl//aLA+HeltTwnjhxYpCijfCuoGvOmDHDFi5cGO5pSfdVACSVefPmNf+7umHDhuBabtvPX7FiRbDt889NlN8TqD5Ux5l4fwCAzMrLYEnX0+Sa8SEaLRr6sUb4Ym1reIR5wZTY/gXT25jjxLN7xSybF2vBl6rLQLrXCo9LOPTGmXOvTa9dY/PC/0jEk4IFfuCn5Oqkr63mZkmV50R7O8xpOW9HC7F6rNQQlGjvjgwrm2glbhhV8BzB3vZJWt/x3jozqhZYadCDR9uldu/XJ17t0dPuz0etba2cZUstQa+jlMPBAJhtsjXrzeY+s9DrDTg71uDQVpndPf5gMERndrnZdqIkPdYLL7zQoXTzzTeHVzD7+KMz4dpVnelZsuvIObtp5MBwKx4kURDkphuKwj1mD9w6zH7y5vFw6yoFQ24cMahF75J03H///bZ169Ygab2ruesns3r16uDXCtE5qsennnoq3AIAdBe9JFgSs+HJcK4Jr9tnldnGoMG7wZ7084K5LdIYTtI8NEQ9PmpsdfCbsOleK36ceb1Grk5cGjfn3ulW2+pXatSYr706z0asYV4zMd6zZU8wr4Z/r1R5ThgsSPdXdnavsMpWXTtazjuSeCLZTlCPFquwdbq+fkK5Qz1Lktd3MHFuydVJbrVdOr3UG1rTsc/Hhifn2dYZsfttDn9JSEGfmr2R9wkgqnrVfFu0Y5qt3LLFtgSp3GqCX8OptlVLVgUBx01L6FGC1IaMuC5cu6ozPUv+eLA+WLqAhwuMzP700GBbFBBxx3UF9UjYuHFjkLTu079H6vXh/k3zh3qkyvO56ydTXV1tBw4cyOowEpXXDeURf1iPPyxI2/4zal3ldNt+mdWrw+1XEl3L7zWj/a73h5buXtFzo+f4ZfW5PFE9qpcOAKB7KSgvL2+qq6sLN3OnpKTEhg0bFm6l59ixY3bkyJFwqzdSL5AFdmDeLAviNC2kyovQMJcqs8pZ4dwfyABN+BpUctvvA+jB9LPvBQUF4Vb25MO/c0ifeol0xMsvv2xr1661WcvutbGfHhvMWXLw/YM2/qbxwZCcztg760fBfCQajvO/dx61d5fcYZ9e/sdg3//c/Ge7bczgYJjOg6vfCY7XXCQaaqPgieYkUXBFx7s83xM//cC2/48Hw604NdKrqqps1qxZwfbmzZutsrLSdu+O/yOixnhtbW2Qr2PXrVsXDGtRfqo8n45Tr9VElOdfL9m6L3ot/9io6LlLly4NhvFo/5o1axIOy4ne2z2jAhjLli1rPs9tu/L45ylv8uTJtnfvXrvnnnuCYTLapx406mWj812gRes615UtUT37ZXX30XtTbxKd4ygvWV0DAPJPcXFx/vQs0T94b731VruSAiX8NGAXUG+RrTNsXdYnI+k95jy3zipqVhMoQa+nCbyzrbGxMVxDT1deXm7Dhw8PAiMKlChg8sUHv2gjJ1yda6Qz3Lwlmsj1/eOfBPs0R4mG5ETnK5Ed/+WzQWDk7+4a2xwocfw5SxR8iYoOkdF6dCiHgieihvu2bdusrOzq4LVUee2lYEGyYSQKDsSHCbc/EOCf6wcW/N4uCmQo0KAU5Z7RnevOc9sKbiiJghy6hoIopaWlLXp7KGii4IbrveN63Lhz3fUS1WW0Z44CJXpX/vOI/p/rrgcA6B66/TCcwsLeM5IokzTvSusJZtFVgp8+pn4BO3++ZWMyG+rru25YBPJbUVGRfeMb37BBgwYFARMNs1H68fy14REt50NpLzdviQIjCpyIhuJo3pJE85X4AZH2qqioCJILFGj9rrvuCnNbSzXMo7NDQNTwT2ey166m4ILrIaKkgENHuWsoqTeJAh+ie+jZ/ACLuPyOUDAmSj2oO3NNAED2EWno1jbYk7ckG9aRKg8AckPBko8//jgrvT10jzNnzuQkQIPcmTBhgn3ve9+zhx56KJjwVY1ULR999FH77ne/Gx7VMW4+EvUUUeBEtE/zlnTlfCUKSigw4DfwlbTPD1i4SV/VwNdz+r0ZUuU50d4OCsr42z714lDgIpvUg8MFSNxztJcLUCSad0U9QFxPELetHjRu253r6lxlUMAqUV06rrdLdM6UzgR6AAC5QbAEAJBVCl5ozinNI5LJpHucOxdv0KJ7WvA3f92h9Hd//w3b+MuXbN/+vVb34ZFguX7Dz2zJM08H+Z3x0jsnbd9HF1oERja9eypIXUXDQlyD3ad9ynPUg0EBDg0x0VAZX6o8R9dL91d2FDjQ/BxRbniLUqKARGe4oISuraBGRwMOGu7j99JxE69qCI0CMG4ojZYKhvhDa3SugkQ6z81X0hb3c8GaZ0YU9NFEuQCA7iVvJngFAAAQN0Sms4GNZFb/6F+D5WOPpf/TwZrgNZMmb/6bcC09aryr4Z5oaEeqPJ96PPiTyCIzopPzAgDyX15N8AoAAIDsUeNdvUtcTwt0PdWtepUQKAGA7odgCQAAQC+ln73VsBFkhuqW+gWA7olhOAAAIK/k4zAcAADQezAMBwAAAAAAIIJgCQAAAAAAgIdgCQAAAAAAgIdgCQAAAAAAgIdgCQAAAAAAgIdgCQAAAAAAgIdgCQAAyCv6SV+ly5ca0kpNTU3hmZmzatUqmzNnTrgVt2fPHpsyZUq4ZUG+jtO+aF66OnpeR+hefsrWfbtKZ+o5mWidLF68OMzJvPY+SyaePxl3n2zesytkotzdrQ4AdBzBEgAA0K01XG7MeMDklVdesXvuuSfcijeY5P777w+WMnnyZKupqbHdu3fbLbfcEizz3bx584KyrlmzxqqqqsK92Zdu49M/LlP17OpEacWKFeHe/JCN50+lK+6Zi0BDZ8ud63oHkBsESwAAQF55/PHHgyQvvPBCwiT+cZkOmFRXV9vEiRPDrXiQRAGG0tLScI/ZjBkzbOPGjeFW96KgQElJSdYbsQAA5CuCJQAAIG8o+FFeXh5utU3HuoBJv779bfWP/rXN1BHuW2QXTHCBkbvuuivYFgUb3HH+N9Fa13AOLd26o2MS7Rc/T8kNA4oOCVKeu5eWypfNmze3OjddOkfX0VKiZXES3SPZsVpPVA/umHXr1jWX3d1bye1LdJz2+c/uzlGK1lGyd5COtq7tyiD+ttaT3de/ZrQ8uXz+tj432p/sno7WE93PHeM/gy/Rc4u2VRaX55c/VZ5Pea7ckug5E91f65KLzx2A3CJYAgAA8oILlGzfvt2ef/75cG9yOkbHuoDJhQsXwpzMOHDggJWVlYVb8QDKtm3bgsaSGkhaT0Y9UNR1f+nSpVZRURHujTfAtE95UX6ehoYsW7YsuJc/JEj3ra2tbR4OpKWGAmm/yqtzlTZs2BDkJ6NGnK7jDy3QdVy5VBY3PEVl0vHJ7pHoWCdRPWhbdM7ChQuDdS3ddRWQ0nMnOs6XrL6cZO8gSteJNnzbunYqHXn3uXp+BRC2bt3afO+2Pje6p+7lrtuRd+1L9NzOggULgv06V9dLNy+RZM+Zq3oHkJ8IlgAAgB7DTQ6bTmovF6RwQQJRQEEBCjdfSTI//OEPg6VrlKkxpaQAhdvnz4/hGlsuzwVmFKzxhwSpPKtXrw56uojr8aJj1Nhr65tsNfQUFFAjbtasWeHeODekyJXFHavGoBqAie6R7FgnUT0kojp2AYt0pKovJ917q8HrGsw6Np1rp9Ledy+5eH5tq3dUuvO0uPM7+659qZ67srIyWCZ6tlR5UameM5efOwD5h2AJAADIC9GeIm1pb0+UznJBCgVGFDgRBRTUQMzmfCVqkIkaXSpPtBGmfCX3jbgafmoEJuIHBtrijlPSN+yp7hE9tj30HGp4u/MVVOhNutvzu3Iqtfdd+9rz3P78QVGp8lLp7Z87AK0RLAEAAHnDBUzSla1AibgghXphKHAi2qfeFf58JenS8TrPBRn8HhruWi5PDTndxwVGNIRAv16jpdt+6qmnmrcdfXuuiWgV4OkoV5ZkvVT8e7R1bDr0rbxrqOq5VUdtaau+OqOta6usrieBHzBKRddM9u5z9fy6hu6b7rtz9+zMu/a19dxuqJnL858tVV5UsufMt88dgNwjWAIAAPKKgh8uAJJo+IyS+Mdli4IRalC5RpKo271SR2geA32bnajbv5v/QHka6qBtR71Y1JhzvVm0VCPNbavxpvOUFNxJd2hFMrq3ruOuqYkuk90j0bFtUf3pGXWsa2jqXAWEXANW/OOiUtVXZ6W6toZBuTz/56Xbkuzd5/L5NRTLf3cuCJCM7tGZd+1L9dyiHlzK07mqO1+qvEQSPWc+fu4A5FZBeXl5U11dXbgJAAAAAPlDgQgFIfwgpZMqDwA6qri4mJ4lAAAAAAAAPoIlAAAAAAAAHobhAAAAAAAAhBiGAwAAAAAAEEGwBAAAAAAAwEOwBAAAAAAAwEOwBAAAAAAAwEOwBAAAAAAAwEOwBAAAAAAAwEOwBAAAAAAAwEOwBAAAAAAAwEOwBAAAAAAAwFNQXl7eVFdXF24CAAAgmf79+9u1115rffv2tcLCzHzndOXKFWtoaLD6+nq7ePFiuDc92ShfR/XU58oE6qq1ztQJALRXcXExPUsAAADSUVRUZMOHDw8ao5lshOrausewYcOCezY1NYU5qWWrfB3VU58rE6ir1jpaJwDQUQRLAAAA0jBo0KBwLXsGDx5sBQUF4VZquShfR/XU58oE6qq19tQJAHQUwRIAAIA0aFhDtrXnnrkoX0f11OfKBOqqtd7+mQCQHQRLAAAA0pDvwxp66hCVnvpcmUBdAUDX4W9UAACALjR79mzbsmVLc1q4cGGYY8F6WVlZcIxSNuney5cvD7fi5fS3VS6VV0uf9vnHObqef3yic7NBZYvWZbQsyn/xxReDdeV1RK6er6vpOfyU6N2mK1mdJNsPAN0JwRIAAIAuokZ5ZWWlzZw5szmtWrUqzDWbNm2aVVdXW2lpqe3fvz/cmx0qx7hx45obsSrnkiVLgnW5++67befOncEyaurUqeHaVXqWfLB9+3YrLy8Pt+Lv4PDhwy2eQ/W9Y8eOYF3vpLdbtGhR8+dTn4nOBEwAoKciWAIAANBFHn300aAhGqUGvL5tHzt2bLCcO3eurVy5slWPiExbu3atVVRUBL1C1q9fH+6NU/BDwZNEQRAFUfweMiq3Cz7kmoJOavA7CpyobP5zaP3VV18N1v1eD1p3PWTcus/tTxRMcHlK7no6zr+Gn6c6c9fx75lr8+fPD4Jhfk8QVzb/udsqs/a7z7no8x2tC5ei9/Kvne0/EwCQDMESAACALuAagOo5ErVp06YgiKIAhb7NV/BBS+3PJt1PgQUFD/weLyr7oUOHgnUtow3WNWvWtAg+KCDhgg+55urb1b+eL/pskui9yPjx44N3UVVVFQSxHAUK3PtS7xWfn6fznnnmmWD/wYMHg+uJ6tDv4aI6U77oPjpXKR+onJMmTQrW9Wx6JpXN74mUqswa4qTPtz5fLl/b7j0kqy/Hfwfq8QQA+YBgCQAAQIapMalv2tXg1Lfn+iZfy3yh3iYuIBAd1uK4IEpbwYdcUE8SBSUSBX0UBEjVC0aBIHGBK/d8ekcuIBQNakXz1GNI52mfG7KkOlRPHhdkUuDBnaPghN9rI5+o/ApY6POp53JBlGRlVuBDz5nq85Csvpxk7wAAcolgCQAAQBdQYzHaCHQ01EHfrOvbdn177r65zzYFDxQ4UPKHSPgNZC1dg9+nBq0CAApKRHta5Joa4gpK+GVzQR+lmpqaYF+m6TOgoII+AwqORBv/LqCgz4N6meRDwExl0+fWDwjpc6rPp5Lbn6rMmhMGAHoagiUAAABdRAGR6BADF5TQUAM1ltV49xum2aRAiIZGKLkhJwqguGFBLmlb+30quwIAeo5clT8ZF4RQwMSVTUuVV4GfjpTXH0ITrQt/Ilzl6VhXBgWi9BlwvVm0VM8dt+3oHbjASi6px5M+t47/3FGJyvzss88Gnwk/+BaVqr7E5eka0TwAyBWCJQAAAF1EjUk1ivXtu0vaJ+6XZ/xfoMkmN2+Eo94t2qfgTbSnSLKhOBpu4ebdSEQNbz1zLoaYRIMRoqE4aqh3hIIAbthUtC70Dl2eAlA61lEvFvXUcL1ZtFTAxu/d4j4bKl8uAgPuPSnpc+A+o+I/t5LjthOV2U0M7N676tyf4DVVfYmCLcrTMdE8AMiVgthf/k11dXXhJgAAABIZPXq0FRQUhFvZk+7/03JVvo7qqc+VCT25rhQk0bCf9gaNaL8AyKTi4mJ6lgAAAKSjoaEhXMuexsbGcK1tuShfR/XU58oE6qq19tQJAHQUwRIAAIA0nD9/PlzLnvr6+nCtbbkoX0f11OfKhJ5eV5ojp729StpTJwDQUQRLAAAA0qCG6OnTp7PyrbbucebMmXY1frNZvo7qqc+VCdRVax2pEwDoKOYsAQAAAAAACDFnCQAAAAAAQATBEgAAAAAAAA/BEgAAAAAAAA/BEgAAAAAAAA/BEgAAAAAAAA/BEgAAAAAAAA/BEgAAAAAAAA/BEgAAAAAAAA/BEgAAAAAAAA/BEgAAAAAAAA/BEgAAAAAAAA/BEgAAAAAAAA/BEgAAAAAAAA/BEgAAAAAAAA/BEgAAAAAAAA/BEgAAAAAAAE9BeXl5U11dXbgJAACAqBOfejBcy4zhH/wiXAMAALlWXFxMzxIAANDzFBQUhGtdo6lP/4wmAACQXwiWAACAvNfU1BSupae9x7eloPFyRhMAAMgvDMMBAADdRt++fa2kpMSGDx8epH79+oU5ZpcvX7Zt27bZhQsXbMzUYrth3Mgwx+ytDbuC5Wfn3Basu2W6Tt14X7iWGUP3/TJcAwAAuaZhOARLAABA3lOQ5Oabb7Zx48aFe1qrqamx9957z0bfMcpGjBlh9Sfr7eyps9ZvUD/78I9Hbcpf3hoeedXu//dOuJbaXX/5iO396IK9U3c+3GP2918Za2v/eMyOno33DLm1uMgmjxhkv3j7RJDn84+L5r15sN52bVkfbsU99thj4Vrc73//e/vggw/Crfx2zz33BMtXXnklWHa1z3/+8zZkyJBW11edHTp0KOH+l156yT766KOE9TphwoSEn6t33nnH3njjjXCr9TuJ5ndHft04en8ff/xxt382AOgMBUv6xP6B+Mf6+vpwFwAAQO5pGI2bd2TEiBH2uc99zq699lprbGxMmvbu3WuffPKJjfvMOLt47qId+F2NXTh+werrzgXXOfb+cRtWOsz2bHq3eZmuS9eNswlD+9m+Y+esoKnRbhhcaJOH97PLDQ126OSFYJ+2z1+8FGz/h+KB9rM3j9qr1Ses0Brtc2MG2TtHzgbH+Xk7D5y22hPnbeCZP4d3iisrK7NNmzbZjh07rLa21r785S8HjfN8N2zYMCstLQ2CWydOnAh6+XQlXV9Bs5dffjncc5Xq7MqVK8Fn4dSpU+He+P59+/YFZfHr9a233rKTJ0/a/v37g3UlP//IkSPhFeKi50bzuyO/bhzVh/68ZeL9AUB3of9zMGcJAADIOy5QMnHixKBxrOCJhtkonT592g4fPhysq0GnoTdK7sufxsuN9snZT4J136dmTA7y/GW6Tpw5b0WFjVZw5XKQJl5faG/VnrLBfa407yseXGB7PzwTrF+6dClWkEvB+h/2nbSBsXNHDmpqledSlI5Rw1/UoNf29ddfH2zns7FjxwbBHSWtdzV3/URUR7t377Ybb7wx3BPn16W/nkiq/LbO7Y6SPZPqUYEUAOjNCJYAAIC8pLlJRo4cGTTolM6ePWtv79plf/rTW3b2zJlgn4ZdmGky1yZraGgIzmu42GCFha3/i/PB1r1Bnr9M18kz5+3iJ5/Y8AFXrLDxko0c2GT7j55p3lbq13Q5OE7r+ka+qSG+P7odzVOKCo4JJ6nVEBEFCBQkklmzZtkdd9wRLEVDUrTukhtSomP84SXK07GipfJl+vTprc6NXtPRun/vqKFDhzYHS7Tu0zm6vrumgmBOqjyfu34iqjPVkYJL/vl+XfrriaTKT5an8vp14tbdfkfb/jNqXeV0236ZE9W/ruXej2h/ovcZPTd6jl9W/5lcnqge/fmAAKA3YhgOAADIO2rwqReBvvVW0rCKffv22icX4z1Gxo4dFzTyamv94Svx3ij9B/ezfgP72YDrBljhwEK7fswQO/dRfK6R0wfjAQe3TNflopE2vKgwGHZz5sIlm3B9P3v3w3q7tn+Bnb942UZd0ydWzkY7clpDcq7YjcP6W+3JC3bxcoPdOmqg9bWm4HiXVxI7v2zkgCDpmAsnDod3ihs/fnwwXlo9azSR7WuvvRbmxPOOHTtmr7/+erD9pS99KRiio6EhR48etc985jNBj5uLFy8GQ5i0T9caOHBg0GNHwQRdQ/kDBgywPn36BHN3aBjTmTNnmq+5c+dO27Nnj507d85Gjx7dfJ5/b5+6LKusGtaha+uemvtCQS3RuUVFRfab3/wmKJN6Lqicyk+V55s0aVIwL00iuoZ6HGnuGlcH7tra79ZdvSrpWJ9/bFT0XD2j/g+t/X6daC5A1aWSAiCJnlF1qmdUUELnadsvT7L6b+t9aj3Z58GVwS+rtvW8t99+u1VXV9v7778f7Ne1VNfR+gGA3oJhOAAAIO+oV4gag2rcKamhd6DmgDU0NgZ9SAoL+wQNfDU0te1SGCuxY+8dt3Mnz1nf/v3s2mHXBcvOKmi8ZIdPnLXhA5ps7DVmp86eD/adji1vGNRkAwsagnXtU9LcKX8xpr/dc2ORjRlstvW9Yy3ytr9/3Dbu+jBIBz86G97lKh2jCTa3bt0aLKdNm2bXXBO7cZj34YcfBuvap203Wb9632h90KBBwbrqSRR80lwU+s+faKlr6JjBgwcH84w47ppTpkwJ7uvmIBH/3lEKlPh5WveH4uhcDe8Qv5ySKs+n45JRnusloWCBu7e/X+uuXpWi/GOjoue6Otd+/7lvuOGGoN6Uovd2z6hz/fPctuo+Wf2n8z5TfR7Ev6doe/LkycE+d46jP1+6HgD0VgRLAABAXtHQG03SqUCJvlXXN99+VKR///7Nef5+JTXuFGw5se+kHdl1pDk5n/rUp4I0atSocE96Cq9ctrPnLlifpktBYOTDU/XBPi37W4Nd16+xeZ+Svpl/ff8J2/re8SC5/S4vGIbj7YvSMW4uCfVeUI8P9QIRP09Lbfs0l4vqT+epntSbQY1s9Shw21oqX0kTlmoIk3oXKODhrqn9LrneHP69ozT5qpKuo6R13cuJnqsyqZySKs8XfVaffw09q66h5/H3R+8TlSo/WZ6/X8+rYS+u3vTekt072baS1qP1n877dOf63OdBEt1T5+p6Ueq1omsCQG9FsAQAAOQNBTo0vEANOKWjH37YonEnLlhyXsGSiMZYo189CvxGumi+WP+6Wk80r0ky6hFy/sIndinWuBw2oMnOxdbdvkGFDbH1y8G633vEYvvctp8S5UXpGNcjQb0CtH7+fHwokZ+nfdp2k7/qWAVV1BtH9JOwY8aMaf5pWC01lMP/qVjR3C8KSqkHg7tmooCSf2+f7q/AwJtvvtkiaZ8rm851PSHcM7lypsrz6Xqul4TccsstzdvRsqnnhZ7B35+s/E6q/GR5/n59NlVGcc/h8qLnJ9tOVf9tvc+2Pg+J7ql6UkDFv5/Oc88BAL1VQXl5eVO02x0AAAAAAEBvpOHA9CwBAAAAAADwECwBAAAAAADwECwBAAAAAADwECwBAAAAAADwECwBAAAAAADwECwBAAAAAADwECwBAAAAAADwECwBAAAAAADwECwBAAAAAADwECwBAAAAAADwECwBAAAAAADwECwBAAAAAADwECwBAAAAAADwECwBAAAAAADwECwBAAAAAADwECwBAAAAAADwECwBAAAAAADwECwBAAAAAADwECwBAAAAAADwECwBAAAAAADwECwBAAAAAADwECwBAAAAAADwECwBAAAAAADwECwBAAAAAADwECwBAAAAAADwECwBAAAAAADwECwBAAAAAADwECwBAAAAAADwECwBAAAAAADwFJSXlzfV1dWFmwAAAACA7qy4uDhcQyYla0ePGzo/XEMmHTr1YrjW9fRniJ4lAAAAAAAAHoIlAAAAAAAAHoIlAAAAAAAAHoIlAAAAAAAAHoIlAAAAAAAAHoIlAAAAAAAAHoIlAAAAAAAAHoIlAAAAAAAAHoIlAAAAAIAuNNuWb9liW7y0fHaY1W661ou2sCzcRBpus2///h/sV1W3hduO9j9hT9wcbiIlgiUAAAAAgC522NYvmmkzZ8bSovU2rnK5dThegg44ZUfG32fffiDc7LTeF2ghWAIAAAAAyJzqGjtk46yU3iFZtePHb9i4v5ppN4XbaB+CJQAAAACAzJldblN3rrVV1eHmcm+ITovxOWW28MVUQ3fC4T0dH9PTu+zdYj85+Hlb8rfF4Y6Im2faCxquE6Sv2Swrtid++g/2gjv+ga/Zr36qYIt6ldxnX7ChNuf5RMN7eiaCJQAAAACALjbW5q4MAx+VZlVLNoX7zTYtCYfnzKyynVMfDecjUaBkpU3bsSjMm2neKTHK14VieS0zkMLmyl/aoUe+mmD4zG327ecn247H/8n+452x9B2zR/7W7F8e1vFftlnKf9rs+w9vsfdtl33rzl/a63bKNuj4yl3hNXo2giUAAAAAgC7mz1ly0B71J2mdvTzsPVJpU8NdVna3TRu709a67icR056JB1KIk7TXLvvWd07anL+O9Aa5eaSNcz1F1LPk6RttzISRsQwdb/bN399n9p2f2eb40b0SwRIAAAAAQOZUv2o7Do+18ZNi62ULLd5BRIGURbb+cPyQ1MbG0mEbG1wA7fbS72xDwsle99n31avEpV7SYyRdBEsAAAAAAJkT9Bo5bAf3x9Ynjbexhw+aVuP7tRITBFSm2qMJfyP4sO14dr5VWaW9yG8Id0Cd/ct/f8PGPa15R0LvHbdDdqM90mo+k3D4zZ2/NHta85j0XgRLAAAAAABdzJuzZOU027FofnyC101rbL3NtZXa/8x4O9Tcs6TaVs2vskNzV4ZDdFpP8LppySLbMS2W/+JCI2TSTu/F6vMnp8IN2WXfevwNs0cqwgleNXHrTHvip/fZuJ/8zjbH8l/8yTD7ZjDBa/z43+3oXRO8FpSXlzfV1dWFmwAAAACA7qy4OMmvn6BLJWtHjxs6P1xDJh069WK41vX0Z4ieJQAAAAAAAB6CJQAAAAAAAB6CJQAAAAAAAB6CJQAAAAAAAB6CJQAAAAAAAB6CJQAAAAAAAB6CJQAAAAAAAB6CJQAAAAAAAB6CJQAAAAAAAJ6C8vLyprq6unATAAAAAACg9youLqZnCQAAAAAAgI9gCQAAAAAAgIdgCQAAAAAAgIdgCQAAAAAAgIdgCQAAAAAAgIdgCQAAAAAAgIdgCQAAAAAAgIdgCQAAAAAAgIdgCQAAAAAAgIdgCQAAAAAAgIdgCQAAAAAAgIdgCQAAAAAAgIdgCQAAAAAAgIdgCQAAAAAAgIdgCQAAAAAAgIdgCQAAAAAAgKfwypUr1qdPn3ATAAAAAACgd1J85Prrr7fCS5carF+/fuFuAAAAAACA3knxkZKSEis8e+a8DRkyxPr27RtmAQAAAAAA9C6Ki4wYMcK++tWvWuHly41Wf/aCXXfddWE2AAAAAABA76K4yAMPPGCjRo2y/w8M0ggykRQqFQAAAABJRU5ErkJggg==;sketch=1;curveFitting=1;jiggle=2;" vertex="1" parent="yhXGz4Dvr0VDfxbSY4Sc-1">
          <mxGeometry width="1049" height="596.57" as="geometry" />
        </mxCell>
        <mxCell id="QP6gKjixdVG4MOO0RyRV-1" value="" style="rounded=0;whiteSpace=wrap;html=1;sketch=1;hachureGap=4;jiggle=2;curveFitting=1;fontFamily=Architects Daughter;fontSource=https%3A%2F%2Ffonts.googleapis.com%2Fcss%3Ffamily%3DArchitects%2BDaughter;fontSize=20;fillColor=none;strokeColor=#b85450;strokeWidth=7;" vertex="1" parent="yhXGz4Dvr0VDfxbSY4Sc-1">
          <mxGeometry x="502" y="115" width="510" height="90" as="geometry" />
        </mxCell>
      </root>
    </mxGraphModel>
  </diagram>
</mxfile>
